<svg width="163" height="166" viewBox="0 0 163 166" fill="none" xmlns="http://www.w3.org/2000/svg">
<g filter="url(#filter0_d_458_2043)">
<rect x="21.4004" y="21.4" width="120" height="122.381" rx="60" fill="white" fill-opacity="0.1" shape-rendering="crispEdges"/>
<rect x="31.4004" y="31.4" width="100" height="102.381" rx="50" fill="url(#paint0_linear_458_2043)"/>
<path d="M69.4261 40.8873C70.2066 40.6568 70.9252 40.586 71.5818 40.6749C72.2384 40.7639 72.7968 40.999 73.2569 41.3803C73.7181 41.7653 74.0453 42.2849 74.2385 42.939L74.2418 42.9502C74.435 43.6043 74.442 44.2164 74.2629 44.7865C74.0849 45.3603 73.7444 45.863 73.2414 46.2944C72.7385 46.7257 72.0968 47.0567 71.3163 47.2872C70.5395 47.5166 69.8228 47.5869 69.1662 47.4979C68.5096 47.409 67.9526 47.1715 67.495 46.7853C67.0349 46.404 66.7083 45.8863 66.5151 45.2322L66.5118 45.221C66.3186 44.5669 66.311 43.953 66.489 43.3791C66.6645 42.8101 67.0036 42.3099 67.5066 41.8785C68.0095 41.4471 68.6494 41.1167 69.4261 40.8873ZM69.8081 42.1807C69.3993 42.3014 69.0626 42.4817 68.798 42.7214C68.5335 42.9612 68.3593 43.247 68.2754 43.5789C68.189 43.9155 68.2045 44.2827 68.322 44.6804L68.3269 44.6971C68.4454 45.0985 68.6319 45.4152 68.8863 45.6471C69.1407 45.8791 69.4441 46.0238 69.7964 46.0814C70.1462 46.1438 70.5255 46.1146 70.9343 45.9938C71.3468 45.872 71.6848 45.6893 71.9483 45.4459C72.2129 45.2061 72.3889 44.9197 72.4765 44.5868C72.564 44.2538 72.5485 43.8867 72.43 43.4853L72.425 43.4686C72.3076 43.0709 72.1211 42.7542 71.8656 42.5185C71.6112 42.2866 71.3079 42.1418 70.9555 42.0842C70.6031 42.0267 70.2207 42.0588 69.8081 42.1807ZM63.4056 43.1051L66.8702 48.4517L65.314 49.4601L64.6597 48.4503L64.6158 48.4787C64.6837 48.9612 64.6058 49.4111 64.3821 49.8284C64.1573 50.2511 63.8124 50.6132 63.3474 50.9145C63.0189 51.1274 62.693 51.2693 62.3696 51.3404C62.0429 51.4135 61.7279 51.4191 61.4245 51.3571C61.1211 51.2951 60.8358 51.1683 60.5685 50.9767L60.5197 51.0083C60.5657 51.3571 60.5409 51.6895 60.4454 52.0053C60.3521 52.3244 60.1977 52.6207 59.9824 52.8942C59.7638 53.1697 59.4903 53.4139 59.1618 53.6267C58.674 53.9429 58.2026 54.1168 57.7475 54.1484C57.2891 54.1822 56.8605 54.0837 56.4615 53.8527C56.0646 53.6251 55.7112 53.2722 55.4014 52.7941L53.3467 49.6233L54.9029 48.6149L56.749 51.4638C56.9513 51.776 57.1691 52.0089 57.4025 52.1624C57.6327 52.318 57.8795 52.389 58.143 52.3752C58.4033 52.3635 58.6782 52.2639 58.9676 52.0764C59.2701 51.8804 59.4875 51.6494 59.62 51.3835C59.7513 51.1229 59.8001 50.842 59.7664 50.5406C59.7327 50.2391 59.6168 49.9356 59.4187 49.6299L57.6201 46.8542L59.1372 45.8711L61.0022 48.7492C61.1961 49.0484 61.4087 49.2732 61.64 49.4234C61.8713 49.5737 62.1187 49.642 62.3822 49.6282C62.6425 49.6166 62.9157 49.518 63.2019 49.3326C63.4979 49.1408 63.7121 48.9119 63.8445 48.646C63.977 48.3801 64.0242 48.0932 63.9863 47.7853C63.9505 47.4806 63.8315 47.1722 63.6292 46.86L61.8495 44.1135L63.4056 43.1051ZM49.6299 53.0159C49.9965 52.5951 50.3743 52.2766 50.7631 52.0604C51.152 51.8441 51.5339 51.745 51.9087 51.7632C52.2809 51.7843 52.6292 51.9361 52.9535 52.2187L52.9623 52.2263C53.2399 52.4682 53.42 52.751 53.5027 53.075C53.5854 53.3989 53.5503 53.7666 53.3973 54.1781C53.2473 54.5922 52.9615 55.05 52.5401 55.5514L50.2257 58.3227L49.4719 57.6659L51.5909 55.1099C51.8749 54.7663 52.0322 54.4767 52.0626 54.2411C52.0906 54.0085 52.0169 53.8158 51.8416 53.663L51.8328 53.6554C51.6137 53.4645 51.3582 53.4244 51.0665 53.5351C50.7776 53.6483 50.4868 53.873 50.1941 54.209C49.9064 54.5391 49.7022 54.8649 49.5815 55.1864C49.4611 55.5133 49.4242 55.8152 49.4708 56.0921C49.5202 56.3717 49.6574 56.6094 49.8824 56.8054L50.9868 57.7677C51.2761 58.0197 51.5976 58.102 51.9514 58.0145C52.3027 57.9299 52.6603 57.6787 53.0243 57.2609C53.3375 56.9015 53.5327 56.5653 53.6101 56.2524C53.6903 55.942 53.6608 55.6721 53.5214 55.4427L53.4984 55.4072L54.6516 54.0836L54.6959 54.13C54.9547 54.4583 55.1043 54.8353 55.1445 55.261C55.1877 55.6893 55.1134 56.1462 54.9216 56.6318C54.7302 57.1229 54.413 57.6227 53.97 58.1311C53.4787 58.695 52.9854 59.1107 52.4902 59.3782C51.9979 59.6483 51.5211 59.7649 51.0599 59.7279C50.599 59.6965 50.1699 59.5076 49.7725 59.1614L46.7309 56.5113L47.9452 55.1176L48.7341 55.805L48.7723 55.7612C48.6853 55.4952 48.6614 55.2071 48.7005 54.8968C48.7399 54.5919 48.8379 54.2789 48.9943 53.9578C49.1508 53.6366 49.3626 53.3227 49.6299 53.0159ZM44.4232 60.2748L51.1894 60.9248L50.3763 62.6107L45.5156 61.957L45.4929 62.0041L48.9342 65.6002L48.1791 67.1657L43.2251 66.7057L43.1998 66.7581L46.7371 70.1552L45.9264 71.8358L41.2058 66.945L42.0594 65.1754L46.8542 65.5908L46.882 65.5332L43.5721 62.0392L44.4232 60.2748ZM38.7534 74.564C38.8991 73.7476 39.1525 73.0665 39.5136 72.5208C39.8786 71.9758 40.3319 71.5863 40.8736 71.3523C41.4184 71.1228 42.0342 71.0693 42.7209 71.1919L42.7266 71.1929C43.4018 71.3134 43.9566 71.5797 44.3908 71.9918C44.8289 72.4046 45.1297 72.9248 45.2933 73.5523C45.4607 74.1805 45.4737 74.8796 45.3323 75.6495C45.1883 76.4347 44.9282 77.087 44.552 77.6064C44.1752 78.1297 43.7116 78.4996 43.1612 78.7163C42.6101 78.9368 42.0007 78.9875 41.3331 78.8683L40.9669 78.803L42.1689 72.0676L43.1875 72.2494L42.1938 77.8174L41.5271 77.1197L41.8991 77.1861C42.2767 77.2535 42.6157 77.2294 42.9158 77.1137C43.2159 76.998 43.4657 76.8004 43.6652 76.5211C43.8684 76.2425 44.0082 75.8895 44.0844 75.4622C44.1641 75.0159 44.1597 74.6215 44.0712 74.2789C43.9866 73.9371 43.8184 73.6552 43.5668 73.4331C43.3144 73.2149 42.9822 73.069 42.5702 72.9954L42.2898 72.9454C41.832 72.8637 41.4446 72.8949 41.1276 73.0391C40.8137 73.1878 40.5619 73.4184 40.3723 73.731C40.1858 74.0481 40.0548 74.4183 39.9792 74.8418C39.9274 75.1317 39.9103 75.4042 39.9278 75.6593C39.949 75.915 39.9993 76.1405 40.0787 76.3357C40.1573 76.5348 40.2632 76.6914 40.3963 76.8057L40.4333 76.83L40.1249 78.5582L40.0717 78.5251C39.7867 78.3798 39.5408 78.1804 39.3341 77.927C39.1312 77.6743 38.9722 77.3743 38.857 77.027C38.745 76.6842 38.6789 76.3044 38.6589 75.8875C38.6381 75.4744 38.6696 75.0332 38.7534 74.564ZM85.0316 125.672C84.2214 125.749 83.5026 125.681 82.8752 125.467C82.2479 125.254 81.745 124.916 81.3666 124.454C80.9878 123.987 80.7664 123.414 80.7023 122.735L80.7012 122.724C80.6372 122.045 80.7477 121.443 81.0329 120.918C81.3177 120.389 81.7484 119.961 82.3247 119.634C82.9011 119.307 83.5944 119.105 84.4046 119.029C85.211 118.953 85.9278 119.021 86.5551 119.235C87.1825 119.448 87.6836 119.788 88.0585 120.255C88.4369 120.717 88.6582 121.288 88.7222 121.967L88.7233 121.978C88.7874 122.658 88.677 123.262 88.3922 123.791C88.1109 124.315 87.682 124.741 87.1056 125.068C86.5293 125.395 85.8379 125.596 85.0316 125.672ZM84.9049 124.33C85.3292 124.29 85.6943 124.177 85.9999 123.993C86.3056 123.808 86.5314 123.561 86.6773 123.252C86.8268 122.938 86.882 122.575 86.8431 122.162L86.8414 122.144C86.8021 121.728 86.6799 121.381 86.4747 121.105C86.2696 120.828 85.9996 120.628 85.6648 120.504C85.3335 120.376 84.9557 120.331 84.5313 120.371C84.1031 120.412 83.7363 120.526 83.431 120.715C83.1253 120.899 82.8976 121.146 82.7478 121.456C82.598 121.766 82.5428 122.13 82.5821 122.546L82.5837 122.564C82.6227 122.977 82.7449 123.323 82.9504 123.603C83.1555 123.88 83.4255 124.08 83.7603 124.204C84.0951 124.328 84.4766 124.37 84.9049 124.33ZM91.3665 124.652L88.9972 118.738L90.7185 118.048L91.166 119.165L91.2146 119.146C91.2409 118.659 91.4041 118.233 91.704 117.866C92.006 117.495 92.4142 117.206 92.9286 117C93.292 116.854 93.6391 116.778 93.9702 116.771C94.3048 116.762 94.615 116.817 94.9007 116.936C95.1865 117.056 95.442 117.235 95.6674 117.475L95.7213 117.453C95.7435 117.102 95.8318 116.78 95.9864 116.489C96.1395 116.194 96.348 115.933 96.612 115.706C96.8796 115.478 97.195 115.291 97.5584 115.145C98.098 114.929 98.5941 114.849 99.0468 114.906C99.503 114.961 99.9047 115.14 100.252 115.444C100.597 115.744 100.876 116.158 101.088 116.687L102.493 120.194L100.772 120.884L99.5092 117.733C99.3708 117.387 99.202 117.117 99.0025 116.921C98.8067 116.724 98.5781 116.607 98.3169 116.57C98.0592 116.531 97.7703 116.576 97.4502 116.704C97.1156 116.838 96.8578 117.023 96.6765 117.258C96.4975 117.489 96.3954 117.755 96.3704 118.057C96.3454 118.359 96.4006 118.68 96.5361 119.018L97.7661 122.088L96.0879 122.76L94.8125 119.577C94.6799 119.246 94.5147 118.984 94.3167 118.792C94.1187 118.6 93.889 118.486 93.6278 118.448C93.3702 118.41 93.0831 118.454 92.7665 118.58C92.4391 118.712 92.1848 118.895 92.0036 119.13C91.8224 119.366 91.7207 119.638 91.6986 119.948C91.675 120.253 91.7324 120.579 91.8707 120.924L93.0878 123.962L91.3665 124.652ZM106.789 117.577C106.349 117.92 105.917 118.161 105.494 118.299C105.071 118.437 104.677 118.461 104.313 118.372C103.952 118.28 103.639 118.064 103.374 117.725L103.367 117.716C103.141 117.426 103.018 117.113 102.999 116.78C102.979 116.446 103.084 116.092 103.313 115.717C103.539 115.339 103.907 114.944 104.416 114.533L107.217 112.254L107.832 113.043L105.264 115.147C104.919 115.43 104.71 115.684 104.635 115.91C104.563 116.133 104.599 116.336 104.741 116.52L104.749 116.529C104.927 116.758 105.17 116.846 105.478 116.793C105.783 116.737 106.111 116.572 106.463 116.298C106.808 116.029 107.071 115.748 107.251 115.456C107.431 115.158 107.525 114.868 107.532 114.588C107.537 114.304 107.448 114.044 107.264 113.809L106.364 112.653C106.128 112.351 105.828 112.209 105.464 112.227C105.103 112.243 104.704 112.421 104.267 112.762C103.891 113.055 103.635 113.348 103.5 113.64C103.362 113.93 103.339 114.2 103.432 114.452L103.448 114.491L102.063 115.57L102.029 115.516C101.837 115.145 101.763 114.746 101.804 114.321C101.844 113.892 102.004 113.458 102.285 113.017C102.566 112.572 102.973 112.142 103.505 111.727C104.095 111.268 104.659 110.954 105.196 110.786C105.731 110.614 106.221 110.591 106.666 110.715C107.113 110.834 107.498 111.101 107.822 111.517L110.302 114.699L108.844 115.835L108.201 115.01L108.155 115.046C108.189 115.324 108.158 115.611 108.06 115.908C107.963 116.2 107.808 116.488 107.593 116.774C107.378 117.059 107.11 117.327 106.789 117.577ZM113.288 111.447L106.772 109.51L107.894 108.012L112.539 109.587L112.57 109.545L109.883 105.355L110.925 103.963L115.699 105.366L115.733 105.32L112.914 101.306L114.033 99.8128L117.726 105.519L116.549 107.092L111.923 105.763L111.885 105.815L114.462 109.879L113.288 111.447ZM121.604 98.5154C121.303 99.2881 120.922 99.9071 120.462 100.373C119.999 100.837 119.478 101.131 118.902 101.255C118.323 101.375 117.708 101.308 117.058 101.055L117.053 101.053C116.414 100.804 115.921 100.435 115.575 99.9465C115.225 99.4566 115.031 98.888 114.992 98.2407C114.95 97.592 115.072 96.9036 115.36 96.1757C115.654 95.4332 116.035 94.8437 116.505 94.407C116.976 93.9667 117.502 93.6936 118.084 93.5877C118.668 93.4781 119.275 93.5465 119.907 93.7927L120.254 93.9278L117.769 100.303L116.805 99.9269L118.859 94.657L119.378 95.4706L119.026 95.3334C118.669 95.1941 118.331 95.1521 118.014 95.2075C117.698 95.2628 117.414 95.4082 117.164 95.6436C116.911 95.8776 116.706 96.1968 116.548 96.6012C116.383 97.0236 116.311 97.4114 116.332 97.7646C116.348 98.1164 116.459 98.4256 116.663 98.6922C116.868 98.9552 117.166 99.1626 117.556 99.3146L117.821 99.418C118.254 99.5869 118.64 99.6313 118.979 99.5513C119.316 99.4663 119.608 99.2888 119.854 99.0189C120.099 98.744 120.299 98.4061 120.455 98.0053C120.562 97.7309 120.632 97.4669 120.664 97.2133C120.693 96.9583 120.687 96.7273 120.647 96.5204C120.609 96.3099 120.535 96.1357 120.427 95.9978L120.395 95.9667L121.032 94.3311L121.078 94.3738C121.33 94.5717 121.532 94.8149 121.686 95.1035C121.836 95.3908 121.934 95.7159 121.98 96.0789C122.023 96.4369 122.014 96.8224 121.953 97.2353C121.893 97.6446 121.777 98.0713 121.604 98.5154Z" fill="white"/>
</g>
<defs>
<filter id="filter0_d_458_2043" x="0.000391006" y="2.47955e-05" width="162.8" height="165.181" filterUnits="userSpaceOnUse" color-interpolation-filters="sRGB">
<feFlood flood-opacity="0" result="BackgroundImageFix"/>
<feColorMatrix in="SourceAlpha" type="matrix" values="0 0 0 0 0 0 0 0 0 0 0 0 0 0 0 0 0 0 127 0" result="hardAlpha"/>
<feOffset/>
<feGaussianBlur stdDeviation="10.7"/>
<feComposite in2="hardAlpha" operator="out"/>
<feColorMatrix type="matrix" values="0 0 0 0 0 0 0 0 0 0.766667 0 0 0 0 1 0 0 0 0.5 0"/>
<feBlend mode="normal" in2="BackgroundImageFix" result="effect1_dropShadow_458_2043"/>
<feBlend mode="normal" in="SourceGraphic" in2="effect1_dropShadow_458_2043" result="shape"/>
</filter>
<linearGradient id="paint0_linear_458_2043" x1="37.7056" y1="31.4" x2="148.4" y2="149.091" gradientUnits="userSpaceOnUse">
<stop stop-color="#03B9D6"/>
<stop offset="0.509615" stop-color="#7AE8FF"/>
<stop offset="1" stop-color="#03B9D6"/>
</linearGradient>
</defs>
</svg>
