<svg width="163" height="166" viewBox="0 0 163 166" fill="none" xmlns="http://www.w3.org/2000/svg">
<g filter="url(#filter0_d_1001_5318)">
<rect x="21.4004" y="21.4" width="120" height="122.381" rx="60" fill="white" fill-opacity="0.1" shape-rendering="crispEdges"/>
<rect x="31.4004" y="31.4" width="100" height="102.381" rx="50" fill="url(#paint0_linear_1001_5318)"/>
<path d="M69.4271 40.8872C70.2076 40.6567 70.9261 40.5859 71.5827 40.6748C72.2394 40.7637 72.7977 40.9989 73.2579 41.3802C73.7191 41.7652 74.0463 42.2848 74.2395 42.9389L74.2428 42.9501C74.4359 43.6042 74.443 44.2163 74.2639 44.7864C74.0858 45.3602 73.7453 45.8628 73.2424 46.2942C72.7395 46.7256 72.0977 47.0566 71.3173 47.2871C70.5405 47.5165 69.8238 47.5867 69.1672 47.4978C68.5106 47.4089 67.9535 47.1714 67.496 46.7852C67.0359 46.4039 66.7092 45.8862 66.5161 45.2321L66.5128 45.2209C66.3196 44.5668 66.312 43.9528 66.49 43.379C66.6654 42.81 67.0046 42.3098 67.5076 41.8784C68.0105 41.447 68.6503 41.1166 69.4271 40.8872ZM69.8091 42.1805C69.4003 42.3013 69.0636 42.4815 68.799 42.7213C68.5344 42.9611 68.3602 43.2469 68.2764 43.5787C68.19 43.9154 68.2055 44.2826 68.3229 44.6802L68.3279 44.697C68.4464 45.0984 68.6329 45.415 68.8873 45.647C69.1417 45.879 69.445 46.0237 69.7974 46.0813C70.1472 46.1437 70.5265 46.1145 70.9353 45.9937C71.3478 45.8719 71.6858 45.6892 71.9493 45.4457C72.2139 45.206 72.3899 44.9196 72.4775 44.5867C72.565 44.2537 72.5495 43.8865 72.4309 43.4852L72.426 43.4684C72.3086 43.0708 72.1221 42.7541 71.8666 42.5184C71.6122 42.2864 71.3088 42.1417 70.9565 42.0841C70.6041 42.0266 70.2216 42.0587 69.8091 42.1805ZM63.4066 43.105L66.8712 48.4516L65.315 49.4599L64.6607 48.4501L64.6168 48.4786C64.6846 48.961 64.6068 49.4109 64.3831 49.8283C64.1583 50.251 63.8134 50.6131 63.3483 50.9144C63.0199 51.1273 62.6939 51.2692 62.3705 51.3402C62.0439 51.4134 61.7289 51.4189 61.4255 51.3569C61.1221 51.2949 60.8368 51.1681 60.5695 50.9765L60.5207 51.0082C60.5667 51.357 60.5419 51.6894 60.4464 52.0052C60.353 52.3243 60.1987 52.6206 59.9834 52.894C59.7648 53.1696 59.4913 53.4138 59.1628 53.6266C58.675 53.9427 58.2035 54.1166 57.7485 54.1483C57.2901 54.1821 56.8614 54.0836 56.4624 53.8526C56.0655 53.6249 55.7122 53.2721 55.4024 52.794L53.3477 49.6232L54.9039 48.6148L56.7499 51.4637C56.9523 51.7759 57.1701 52.0087 57.4035 52.1623C57.6337 52.3179 57.8805 52.3888 58.144 52.3751C58.4043 52.3634 58.6792 52.2638 58.9686 52.0763C59.271 51.8803 59.4885 51.6493 59.6209 51.3834C59.7523 51.1228 59.8011 50.8418 59.7674 50.5404C59.7337 50.239 59.6178 49.9355 59.4197 49.6298L57.621 46.8541L59.1382 45.871L61.0032 48.7491C61.1971 49.0483 61.4097 49.273 61.641 49.4233C61.8723 49.5736 62.1197 49.6419 62.3832 49.6281C62.6435 49.6164 62.9167 49.5179 63.2029 49.3324C63.4988 49.1407 63.713 48.9118 63.8455 48.6459C63.9779 48.38 64.0252 48.0931 63.9873 47.7851C63.9515 47.4805 63.8325 47.172 63.6302 46.8598L61.8505 44.1134L63.4066 43.105ZM49.6309 53.0158C49.9975 52.595 50.3752 52.2765 50.7641 52.0602C51.153 51.844 51.5348 51.7449 51.9096 51.7631C52.2819 51.7842 52.6302 51.936 52.9545 52.2186L52.9633 52.2262C53.2408 52.468 53.421 52.7509 53.5037 53.0748C53.5864 53.3988 53.5513 53.7665 53.3983 54.178C53.2483 54.5921 52.9625 55.0499 52.541 55.5513L50.2267 58.3226L49.4729 57.6658L51.5919 55.1098C51.8759 54.7662 52.0331 54.4766 52.0636 54.241C52.0916 54.0083 52.0179 53.8157 51.8426 53.6629L51.8338 53.6553C51.6147 53.4643 51.3592 53.4242 51.0674 53.535C50.7786 53.6482 50.4878 53.8728 50.195 54.2089C49.9074 54.539 49.7032 54.8648 49.5825 55.1862C49.4621 55.5131 49.4252 55.8151 49.4717 56.092C49.5212 56.3715 49.6584 56.6093 49.8834 56.8053L50.9878 57.7676C51.2771 58.0196 51.5986 58.1019 51.9524 58.0144C52.3036 57.9298 52.6613 57.6786 53.0253 57.2607C53.3384 56.9014 53.5337 56.5652 53.611 56.2522C53.6913 55.9418 53.6618 55.6719 53.5224 55.4426L53.4993 55.4071L54.6525 54.0835L54.6969 54.1299C54.9557 54.4582 55.1053 54.8352 55.1455 55.2609C55.1887 55.6891 55.1144 56.1461 54.9226 56.6317C54.7311 57.1228 54.4139 57.6225 53.971 58.1309C53.4797 58.6948 52.9864 59.1106 52.4912 59.3781C51.9989 59.6482 51.5221 59.7648 51.0609 59.7278C50.6 59.6963 50.1709 59.5075 49.7735 59.1613L46.7319 56.5112L47.9462 55.1175L48.7351 55.8049L48.7733 55.761C48.6863 55.4951 48.6624 55.207 48.7015 54.8966C48.7409 54.5918 48.8389 54.2788 48.9953 53.9577C49.1517 53.6365 49.3636 53.3226 49.6309 53.0158ZM44.4242 60.2747L51.1904 60.9247L50.3772 62.6106L45.5166 61.9569L45.4939 62.004L48.9352 65.6001L48.1801 67.1655L43.226 66.7056L43.2008 66.7579L46.7381 70.1551L45.9274 71.8357L41.2067 66.9449L42.0603 65.1752L46.8552 65.5907L46.883 65.5331L43.5731 62.0391L44.4242 60.2747ZM38.7543 74.5638C38.9 73.7474 39.1535 73.0664 39.5146 72.5207C39.8795 71.9757 40.3329 71.5861 40.8746 71.3522C41.4194 71.1227 42.0351 71.0692 42.7218 71.1917L42.7276 71.1928C43.4028 71.3133 43.9576 71.5796 44.3918 71.9917C44.8299 72.4045 45.1307 72.9246 45.2943 73.5522C45.4616 74.1804 45.4746 74.8795 45.3333 75.6494C45.1892 76.4346 44.9291 77.0869 44.553 77.6063C44.1762 78.1295 43.7126 78.4995 43.1622 78.7162C42.6111 78.9367 42.0017 78.9874 41.3341 78.8682L40.9679 78.8029L42.1699 72.0675L43.1885 72.2493L42.1948 77.8173L41.5281 77.1196L41.9 77.186C42.2777 77.2534 42.6166 77.2292 42.9168 77.1135C43.2169 76.9978 43.4667 76.8003 43.6661 76.521C43.8694 76.2424 44.0091 75.8894 44.0854 75.4621C44.1651 75.0158 44.1607 74.6213 44.0722 74.2788C43.9876 73.937 43.8194 73.655 43.5677 73.433C43.3154 73.2147 42.9832 73.0689 42.5712 72.9953L42.2908 72.9453C41.833 72.8636 41.4456 72.8948 41.1285 73.039C40.8146 73.1877 40.5629 73.4183 40.3733 73.7309C40.1868 74.0479 40.0557 74.4182 39.9802 74.8417C39.9284 75.1316 39.9113 75.4041 39.9287 75.6591C39.95 75.9149 40.0003 76.1404 40.0796 76.3356C40.1583 76.5346 40.2642 76.6913 40.3973 76.8056L40.4343 76.8299L40.1258 78.5581L40.0727 78.525C39.7877 78.3797 39.5418 78.1803 39.3351 77.9269C39.1322 77.6742 38.9731 77.3742 38.858 77.0269C38.746 76.6841 38.6799 76.3043 38.6598 75.8873C38.6391 75.4742 38.6706 75.0331 38.7543 74.5638ZM85.0325 125.672C84.2223 125.749 83.5036 125.68 82.8762 125.467C82.2489 125.254 81.746 124.916 81.3676 124.453C80.9888 123.987 80.7674 123.414 80.7033 122.735L80.7022 122.724C80.6381 122.045 80.7487 121.443 81.0339 120.917C81.3187 120.388 81.7493 119.961 82.3257 119.634C82.9021 119.307 83.5954 119.105 84.4056 119.029C85.2119 118.953 85.9288 119.021 86.5561 119.234C87.1835 119.448 87.6846 119.788 88.0595 120.254C88.4379 120.717 88.6591 121.288 88.7232 121.967L88.7243 121.978C88.7884 122.657 88.678 123.261 88.3932 123.79C88.1119 124.315 87.683 124.741 87.1066 125.068C86.5302 125.395 85.8389 125.596 85.0325 125.672ZM84.9058 124.33C85.3302 124.29 85.6952 124.177 86.0009 123.993C86.3066 123.808 86.5324 123.561 86.6783 123.252C86.8278 122.938 86.883 122.574 86.844 122.162L86.8424 122.144C86.8031 121.728 86.6808 121.381 86.4757 121.105C86.2706 120.828 86.0006 120.628 85.6658 120.504C85.3345 120.375 84.9567 120.331 84.5323 120.371C84.104 120.412 83.7373 120.526 83.432 120.715C83.1263 120.899 82.8986 121.146 82.7488 121.456C82.599 121.766 82.5437 122.13 82.583 122.546L82.5847 122.564C82.6236 122.976 82.7459 123.323 82.9514 123.603C83.1565 123.88 83.4265 124.08 83.7613 124.204C84.0961 124.328 84.4776 124.37 84.9058 124.33ZM91.3675 124.652L88.9982 118.738L90.7195 118.048L91.167 119.165L91.2156 119.146C91.2419 118.659 91.405 118.233 91.7049 117.866C92.007 117.495 92.4152 117.206 92.9296 117C93.2929 116.854 93.6401 116.778 93.9711 116.771C94.3058 116.762 94.6159 116.817 94.9017 116.936C95.1874 117.056 95.443 117.235 95.6684 117.474L95.7223 117.453C95.7444 117.102 95.8328 116.78 95.9873 116.489C96.1405 116.194 96.349 115.933 96.613 115.706C96.8806 115.478 97.196 115.291 97.5594 115.145C98.0989 114.929 98.5951 114.849 99.0477 114.906C99.504 114.961 99.9057 115.14 100.253 115.444C100.598 115.744 100.877 116.158 101.089 116.687L102.494 120.194L100.773 120.884L99.5102 117.733C99.3718 117.387 99.2029 117.117 99.0035 116.921C98.8076 116.724 98.5791 116.607 98.3179 116.57C98.0602 116.531 97.7713 116.576 97.4512 116.704C97.1166 116.838 96.8587 117.023 96.6775 117.258C96.4984 117.488 96.3964 117.755 96.3714 118.057C96.3464 118.359 96.4016 118.679 96.537 119.018L97.7671 122.088L96.0889 122.76L94.8135 119.577C94.6809 119.246 94.5156 118.984 94.3176 118.792C94.1196 118.6 93.89 118.485 93.6288 118.448C93.3711 118.409 93.084 118.453 92.7675 118.58C92.4401 118.711 92.1858 118.895 92.0046 119.13C91.8234 119.366 91.7217 119.638 91.6996 119.947C91.676 120.253 91.7334 120.579 91.8717 120.924L93.0888 123.962L91.3675 124.652ZM106.79 117.577C106.35 117.92 105.918 118.16 105.495 118.298C105.072 118.437 104.678 118.461 104.314 118.372C103.953 118.28 103.64 118.064 103.375 117.725L103.368 117.716C103.142 117.425 103.019 117.113 103 116.78C102.98 116.446 103.085 116.092 103.314 115.717C103.54 115.339 103.908 114.944 104.417 114.532L107.218 112.254L107.833 113.042L105.265 115.147C104.92 115.43 104.711 115.684 104.636 115.91C104.564 116.133 104.6 116.336 104.742 116.519L104.75 116.529C104.928 116.758 105.171 116.846 105.479 116.793C105.784 116.737 106.112 116.572 106.464 116.298C106.809 116.029 107.072 115.748 107.252 115.456C107.432 115.158 107.526 114.868 107.533 114.588C107.538 114.304 107.449 114.044 107.265 113.809L106.365 112.653C106.129 112.351 105.829 112.209 105.465 112.227C105.104 112.243 104.705 112.421 104.268 112.762C103.892 113.055 103.636 113.348 103.501 113.64C103.363 113.93 103.34 114.2 103.433 114.452L103.449 114.491L102.064 115.57L102.03 115.516C101.838 115.145 101.764 114.746 101.805 114.32C101.845 113.892 102.005 113.457 102.286 113.017C102.567 112.572 102.974 112.142 103.506 111.727C104.096 111.268 104.659 110.954 105.197 110.786C105.731 110.614 106.222 110.591 106.667 110.715C107.114 110.834 107.499 111.101 107.823 111.517L110.303 114.699L108.845 115.835L108.202 115.01L108.156 115.046C108.19 115.323 108.159 115.611 108.061 115.908C107.964 116.2 107.809 116.488 107.594 116.774C107.379 117.059 107.111 117.327 106.79 117.577ZM113.289 111.447L106.773 109.51L107.895 108.012L112.54 109.587L112.571 109.545L109.884 105.355L110.926 103.963L115.7 105.366L115.734 105.319L112.915 101.306L114.034 99.8126L117.727 105.519L116.55 107.092L111.924 105.763L111.886 105.815L114.463 109.879L113.289 111.447ZM121.605 98.5153C121.304 99.288 120.923 99.907 120.463 100.372C120 100.836 119.479 101.131 118.903 101.255C118.324 101.375 117.709 101.308 117.059 101.055L117.054 101.053C116.415 100.804 115.922 100.435 115.576 99.9463C115.226 99.4565 115.032 98.8879 114.993 98.2406C114.95 97.5918 115.073 96.9035 115.361 96.1755C115.655 95.4331 116.036 94.8436 116.506 94.4069C116.977 93.9666 117.503 93.6935 118.085 93.5875C118.669 93.478 119.276 93.5464 119.908 93.7926L120.255 93.9277L117.77 100.302L116.806 99.9268L118.86 94.6569L119.379 95.4705L119.027 95.3333C118.669 95.194 118.332 95.152 118.015 95.2074C117.699 95.2627 117.415 95.4081 117.165 95.6435C116.912 95.8775 116.707 96.1967 116.549 96.6011C116.384 97.0235 116.312 97.4113 116.333 97.7645C116.349 98.1162 116.46 98.4254 116.664 98.692C116.869 98.955 117.167 99.1625 117.557 99.3145L117.822 99.4179C118.255 99.5868 118.641 99.6312 118.98 99.5512C119.317 99.4661 119.609 99.2887 119.855 99.0188C120.1 98.7438 120.3 98.406 120.456 98.0052C120.563 97.7308 120.633 97.4668 120.665 97.2132C120.694 96.9582 120.688 96.7272 120.648 96.5203C120.61 96.3098 120.536 96.1356 120.428 95.9976L120.396 95.9666L121.033 94.331L121.079 94.3737C121.331 94.5715 121.533 94.8148 121.687 95.1034C121.837 95.3907 121.935 95.7158 121.981 96.0788C122.024 96.4368 122.015 96.8223 121.954 97.2352C121.894 97.6444 121.778 98.0711 121.605 98.5153Z" fill="white"/>
</g>
<defs>
<filter id="filter0_d_1001_5318" x="0.000391006" y="2.47955e-05" width="162.8" height="165.181" filterUnits="userSpaceOnUse" color-interpolation-filters="sRGB">
<feFlood flood-opacity="0" result="BackgroundImageFix"/>
<feColorMatrix in="SourceAlpha" type="matrix" values="0 0 0 0 0 0 0 0 0 0 0 0 0 0 0 0 0 0 127 0" result="hardAlpha"/>
<feOffset/>
<feGaussianBlur stdDeviation="10.7"/>
<feComposite in2="hardAlpha" operator="out"/>
<feColorMatrix type="matrix" values="0 0 0 0 0 0 0 0 0 0.766667 0 0 0 0 1 0 0 0 0.5 0"/>
<feBlend mode="normal" in2="BackgroundImageFix" result="effect1_dropShadow_1001_5318"/>
<feBlend mode="normal" in="SourceGraphic" in2="effect1_dropShadow_1001_5318" result="shape"/>
</filter>
<linearGradient id="paint0_linear_1001_5318" x1="131.4" y1="54.4423" x2="27.2619" y2="63.5815" gradientUnits="userSpaceOnUse">
<stop stop-color="#1C1C1C"/>
<stop offset="0.509615" stop-color="#3F3F3F"/>
<stop offset="1" stop-color="#1C1C1C"/>
</linearGradient>
</defs>
</svg>
