<svg width="77" height="78" viewBox="0 0 77 78" fill="none" xmlns="http://www.w3.org/2000/svg">
<path opacity="0.5" d="M39.4957 -0.0243609C40.3153 0.00965416 41.0238 0.175897 41.6214 0.474368C42.2189 0.772838 42.6751 1.17882 42.99 1.69232C43.3047 2.20973 43.4479 2.81188 43.4194 3.49879L43.4189 3.5105C43.3904 4.19741 43.1979 4.78368 42.8415 5.26932C42.485 5.75887 41.9966 6.1276 41.3764 6.37554C40.7563 6.62347 40.0364 6.73043 39.2167 6.69642C38.401 6.66256 37.6944 6.4964 37.0969 6.19793C36.4994 5.89946 36.0452 5.4916 35.7344 4.97436C35.4195 4.46086 35.2763 3.86066 35.3048 3.17375L35.3053 3.16204C35.3338 2.47513 35.5263 1.88691 35.8828 1.39736C36.2353 0.911563 36.7216 0.544695 37.3418 0.296761C37.962 0.0488266 38.68 -0.0582139 39.4957 -0.0243609ZM39.4393 1.33384C39.01 1.31603 38.6301 1.37845 38.2997 1.52113C37.9693 1.6638 37.7101 1.8798 37.5222 2.16913C37.3302 2.4622 37.2255 2.81754 37.2082 3.23515L37.2074 3.25271C37.1899 3.67423 37.2648 4.03702 37.432 4.34109C37.5992 4.64516 37.8416 4.88197 38.159 5.05153C38.4724 5.22483 38.8438 5.32039 39.2731 5.33821C39.7063 5.35619 40.0882 5.29189 40.4188 5.14532C40.7492 5.00265 41.0104 4.78673 41.2022 4.49756C41.3941 4.20839 41.4987 3.85305 41.5162 3.43154L41.5169 3.41397C41.5343 2.99636 41.4594 2.63357 41.2924 2.3256C41.1251 2.02153 40.8828 1.78471 40.5653 1.61515C40.2479 1.44559 39.8725 1.35182 39.4393 1.33384ZM33.0441 0.163509L34.8138 6.33673L33.017 6.85181L32.6828 5.68589L32.6321 5.70042C32.5558 6.18554 32.3485 6.59646 32.0102 6.93319C31.6693 7.27475 31.2303 7.52249 30.6934 7.67642C30.3141 7.78515 29.9581 7.82624 29.6254 7.79971C29.289 7.77425 28.9836 7.68706 28.7093 7.53814C28.435 7.38921 28.1971 7.18312 27.9956 6.91984L27.9393 6.93599C27.8811 7.28588 27.7596 7.59907 27.5748 7.87557C27.391 8.15582 27.1551 8.39614 26.8671 8.59653C26.5754 8.798 26.2399 8.9531 25.8607 9.06182C25.2974 9.22329 24.7917 9.25244 24.3436 9.14928C23.8917 9.0472 23.5074 8.8262 23.1905 8.4863C22.8747 8.15015 22.6377 7.70609 22.4794 7.1541L21.4299 3.49298L23.2267 2.97789L24.1696 6.26728C24.273 6.62776 24.4146 6.9163 24.5946 7.13292C24.7707 7.3506 24.9879 7.49153 25.246 7.55569C25.5004 7.62092 25.7947 7.60564 26.1289 7.50984C26.4781 7.40973 26.7557 7.25093 26.9615 7.03343C27.1647 6.82077 27.2943 6.56418 27.3504 6.26366C27.4065 5.96313 27.3839 5.63638 27.2827 5.28341L26.364 2.07852L28.1157 1.57635L29.0683 4.89953C29.1674 5.24499 29.3063 5.52415 29.4852 5.73701C29.664 5.94986 29.8825 6.08837 30.1407 6.15253C30.3951 6.21777 30.6875 6.20302 31.0179 6.10829C31.3596 6.01034 31.6334 5.85261 31.8393 5.63512C32.0451 5.41763 32.175 5.15487 32.2289 4.84683C32.2839 4.54255 32.2597 4.21017 32.1564 3.84969L31.2473 0.678591L33.0441 0.163509ZM16.9339 5.77152C17.3999 5.45652 17.8503 5.244 18.2851 5.13396C18.72 5.02393 19.1176 5.02627 19.478 5.14098C19.8352 5.25787 20.1352 5.49593 20.378 5.85516L20.3846 5.86487C20.5924 6.17232 20.6947 6.49453 20.6914 6.83149C20.6882 7.16846 20.5588 7.5176 20.3032 7.87893C20.0498 8.24349 19.653 8.61547 19.1126 8.99487L16.1407 11.0956L15.5763 10.2607L18.3022 8.31911C18.6678 8.05784 18.896 7.81641 18.9867 7.59481C19.0741 7.3754 19.0522 7.16861 18.9209 6.97443L18.9144 6.96472C18.7503 6.722 18.5118 6.6168 18.1989 6.64914C17.8882 6.68471 17.5468 6.82827 17.1746 7.07984C16.8089 7.32702 16.5256 7.59156 16.3248 7.87345C16.123 8.16076 16.0089 8.44535 15.9825 8.7272C15.9583 9.0123 16.0305 9.27944 16.1989 9.52864L17.0258 10.752C17.2423 11.0724 17.5343 11.2357 17.9016 11.242C18.2657 11.2505 18.6791 11.0984 19.1419 10.7856C19.54 10.5165 19.8172 10.2396 19.9736 9.9547C20.1321 9.67308 20.1732 9.40251 20.0968 9.14297L20.0835 9.10243L21.5495 8.11149L21.5808 8.16817C21.7479 8.55497 21.796 8.96094 21.7251 9.3861C21.6563 9.81449 21.4656 10.2404 21.1531 10.6639C20.8394 11.0927 20.4011 11.4975 19.8379 11.8781C19.2133 12.3003 18.6252 12.5776 18.0735 12.7101C17.524 12.8457 17.0293 12.8359 16.5896 12.6805C16.1487 12.5306 15.7796 12.2355 15.4821 11.7954L13.2049 8.42641L14.7486 7.38297L15.3392 8.25677L15.3878 8.22396C15.3719 7.94237 15.4231 7.65548 15.5415 7.36329C15.6589 7.07651 15.8353 6.79695 16.0708 6.52459C16.3064 6.25223 16.594 6.00121 16.9339 5.77152ZM10.0564 11.5488L16.5526 13.7275L15.3702 15.1978L10.7461 13.4493L10.7131 13.4904L13.2736 17.8051L12.1758 19.1704L7.4158 17.5909L7.37908 17.6365L10.0791 21.7777L8.90049 23.2434L5.37847 17.3661L6.61955 15.8227L11.2333 17.3223L11.2737 17.272L8.81896 13.0876L10.0564 11.5488ZM1.38423 24.3419C1.68768 23.563 2.07123 22.9389 2.53488 22.4698C3.00218 22.002 3.5265 21.7053 4.10787 21.5797C4.69145 21.4591 5.31083 21.5264 5.96599 21.7816L5.97145 21.7837C6.6157 22.0347 7.11232 22.4064 7.46133 22.8987C7.81397 23.3924 8.00992 23.9655 8.04918 24.618C8.09207 25.2719 7.96848 25.9658 7.67841 26.6996C7.38267 27.448 6.99813 28.0423 6.52478 28.4825C6.05002 28.9264 5.51934 29.2018 4.93272 29.3086C4.34469 29.4191 3.7322 29.3503 3.09523 29.1021L2.74581 28.966L5.24924 22.54L6.22107 22.9186L4.15154 28.2308L3.62838 27.4108L3.98326 27.549C4.3436 27.6894 4.68347 27.7317 5.00287 27.6758C5.32227 27.62 5.60784 27.4734 5.85959 27.2361C6.11498 27.0003 6.32208 26.6785 6.4809 26.2708C6.6468 25.845 6.71944 25.4541 6.69882 25.0981C6.68184 24.7435 6.57058 24.4319 6.36504 24.1631C6.15809 23.8981 5.85806 23.6889 5.46497 23.5358L5.19744 23.4316C4.76066 23.2614 4.37145 23.2167 4.02978 23.2974C3.69034 23.3831 3.39636 23.5621 3.14782 23.8342C2.90151 24.1113 2.69965 24.4519 2.54226 24.8559C2.43449 25.1325 2.36435 25.3987 2.33184 25.6543C2.30297 25.9114 2.30869 26.1442 2.34902 26.3527C2.38793 26.5649 2.46205 26.7405 2.57139 26.8795L2.60323 26.9108L1.96089 28.5596L1.9148 28.5165C1.66129 28.3171 1.45705 28.072 1.30209 27.781C1.15077 27.4915 1.05206 27.1638 1.00596 26.7979C0.962087 26.437 0.970914 26.0485 1.03245 25.6323C1.09256 25.2197 1.20982 24.7896 1.38423 24.3419ZM42.0075 77.286C41.1938 77.3903 40.4674 77.3456 39.8282 77.1519C39.189 76.9582 38.671 76.6347 38.2742 76.1815C37.8769 75.7244 37.6345 75.1549 37.5471 74.473L37.5456 74.4613C37.4582 73.7794 37.5493 73.1691 37.8189 72.6305C38.088 72.0879 38.5074 71.6423 39.0771 71.2936C39.6467 70.9449 40.3384 70.7184 41.152 70.614C41.9618 70.5102 42.6863 70.5552 43.3255 70.7489C43.9647 70.9426 44.481 71.2682 44.8744 71.7258C45.2712 72.1791 45.5133 72.7466 45.6008 73.4285L45.6022 73.4402C45.6897 74.1221 45.5988 74.7343 45.3297 75.2768C45.064 75.815 44.6463 76.2584 44.0766 76.6072C43.507 76.9559 42.8172 77.1822 42.0075 77.286ZM41.8346 75.9376C42.2608 75.883 42.6247 75.7576 42.9265 75.5614C43.2282 75.3651 43.4473 75.1086 43.5839 74.7918C43.7239 74.4706 43.7673 74.1027 43.7142 73.6882L43.7119 73.6707C43.6583 73.2523 43.5235 72.9072 43.3075 72.6356C43.0915 72.364 42.8128 72.1713 42.4713 72.0576C42.1332 71.9395 41.7511 71.9077 41.3249 71.9624C40.8948 72.0175 40.5292 72.1451 40.228 72.3452C39.9262 72.5414 39.7051 72.7982 39.5647 73.1155C39.4242 73.4328 39.3808 73.8007 39.4344 74.2192L39.4367 74.2366C39.4898 74.6512 39.6247 74.9962 39.8411 75.2717C40.0571 75.5433 40.3358 75.736 40.6773 75.8497C41.0188 75.9635 41.4045 75.9928 41.8346 75.9376ZM48.3355 76.0143L45.5442 70.2308L47.2276 69.4184L47.7548 70.5107L47.8023 70.4878C47.7952 69.9967 47.9297 69.5566 48.206 69.1674C48.4841 68.7729 48.8746 68.4543 49.3777 68.2115C49.733 68.04 50.0769 67.9391 50.4092 67.9088C50.7451 67.8769 51.0609 67.911 51.3565 68.0112C51.6521 68.1114 51.9215 68.2742 52.1647 68.4995L52.2174 68.474C52.2154 68.1193 52.282 67.7901 52.4173 67.4862C52.5509 67.1788 52.7426 66.902 52.9924 66.6556C53.2457 66.4076 53.55 66.1979 53.9053 66.0264C54.433 65.7717 54.9264 65.6572 55.3856 65.6828C55.8482 65.7068 56.2645 65.8593 56.6344 66.1406C57.0027 66.4183 57.3116 66.8157 57.5612 67.3328L59.2166 70.7629L57.5332 71.5753L56.0459 68.4935C55.8829 68.1558 55.6944 67.8955 55.4803 67.7125C55.2698 67.5279 55.0318 67.4258 54.7665 67.4064C54.5048 67.3853 54.2173 67.4503 53.9042 67.6014C53.5771 67.7593 53.3305 67.9628 53.1645 68.2121C53.0004 68.4561 52.9162 68.731 52.9119 69.0367C52.9076 69.3424 52.9853 69.6606 53.1449 69.9912L54.594 72.9938L52.9528 73.7859L51.4502 70.6725C51.294 70.3488 51.1098 70.0973 50.8974 69.9179C50.685 69.7384 50.4462 69.639 50.1809 69.6196C49.9191 69.5984 49.6334 69.6626 49.3238 69.812C49.0037 69.9665 48.7607 70.1684 48.5947 70.4176C48.4287 70.6669 48.3453 70.9479 48.3444 71.2606C48.3418 71.5698 48.422 71.8932 48.585 72.231L50.0189 75.2019L48.3355 76.0143ZM63.2654 67.7552C62.8593 68.1444 62.4512 68.4299 62.0412 68.6118C61.6312 68.7937 61.2389 68.8586 60.8643 68.8064C60.4924 68.7515 60.1565 68.5675 59.8565 68.2545L59.8484 68.246C59.5917 67.9781 59.4365 67.6778 59.3828 67.3451C59.3291 67.0124 59.3976 66.6465 59.5885 66.2472C59.7766 65.845 60.105 65.4114 60.5735 64.9462L63.1479 62.3736L63.8452 63.1012L61.4864 65.4753C61.1701 65.7946 60.9861 66.0711 60.9341 66.3048C60.885 66.5359 60.9415 66.736 61.1037 66.9052L61.1118 66.9137C61.3145 67.1252 61.5673 67.1886 61.8702 67.1039C62.1705 67.0163 62.4828 66.8171 62.8071 66.5063C63.1258 66.2009 63.3603 65.8924 63.5106 65.5806C63.661 65.2633 63.7254 64.9636 63.7038 64.6813C63.6795 64.3962 63.5633 64.1451 63.3552 63.9279L62.3336 62.8618C62.066 62.5826 61.7507 62.4709 61.3875 62.5267C61.0272 62.5798 60.6455 62.7996 60.2421 63.1861C59.8952 63.5186 59.6688 63.8384 59.5628 64.1455C59.4541 64.4499 59.4593 64.7235 59.5785 64.9664L59.5984 65.0041L58.3208 66.2284L58.2804 66.1779C58.0503 65.8249 57.9344 65.4328 57.9325 65.0018C57.9279 64.568 58.0439 64.1159 58.2805 63.6458C58.5171 63.1701 58.8808 62.6971 59.3716 62.2269C59.9159 61.7052 60.4488 61.3326 60.9702 61.1088C61.4889 60.8823 61.9781 60.8084 62.4378 60.8873C62.8976 60.9606 63.3113 61.1891 63.6788 61.5727L66.4924 64.5086L65.1471 65.7978L64.4173 65.0363L64.375 65.0768C64.4382 65.3517 64.4362 65.6431 64.3688 65.9511C64.3016 66.2536 64.1749 66.559 63.9888 66.8672C63.8027 67.1754 63.5615 67.4714 63.2654 67.7552ZM69.0669 60.8964L62.2948 59.854L63.21 58.204L68.064 59.1409L68.0896 59.0947L64.8328 55.2782L65.6825 53.7462L70.6417 54.4934L70.6701 54.4422L67.3053 50.8204L68.2176 49.1756L72.6876 54.3685L71.727 56.1004L66.9255 55.4071L66.8942 55.4635L70.0246 59.1697L69.0669 60.8964ZM75.4378 46.8166C75.271 47.6358 74.999 48.3159 74.6218 48.857C74.2407 49.3973 73.7744 49.7788 73.2229 50.0013C72.6682 50.2193 72.0464 50.2582 71.3574 50.1179L71.3517 50.1168C70.6742 49.9788 70.1216 49.697 69.6941 49.2711C69.2627 48.8444 68.9723 48.3129 68.8228 47.6766C68.6694 47.0394 68.6734 46.3346 68.8346 45.5622C68.9989 44.7745 69.2769 44.1235 69.6686 43.6093C70.0611 43.0912 70.5373 42.7297 71.0973 42.5248C71.658 42.316 72.2733 42.2798 72.9431 42.4162L73.3106 42.491L71.935 49.2489L70.913 49.0408L72.0501 43.4542L72.705 44.1735L72.3318 44.0975C71.9528 44.0204 71.6107 44.0365 71.3054 44.1457C71.0002 44.255 70.7436 44.448 70.5359 44.7246C70.3242 45.0004 70.1748 45.3527 70.0875 45.7814C69.9964 46.2292 69.9912 46.6268 70.072 46.9741C70.1489 47.3207 70.3115 47.6089 70.5597 47.8388C70.8087 48.0649 71.1398 48.22 71.5532 48.3041L71.8346 48.3614C72.2939 48.4549 72.6851 48.4329 73.0081 48.2953C73.328 48.1531 73.5873 47.9269 73.786 47.6165C73.9817 47.3016 74.1228 46.9317 74.2093 46.5068C74.2685 46.2159 74.2924 45.9417 74.281 45.6843C74.2658 45.426 74.2206 45.1976 74.1455 44.9989C74.0711 44.7964 73.9682 44.6359 73.8368 44.5175L73.8002 44.4921L74.1531 42.7581L74.2059 42.7928C74.4896 42.9462 74.7325 43.1531 74.9346 43.4135C75.1329 43.6731 75.2858 43.9793 75.3934 44.3321C75.4979 44.6802 75.5552 45.0646 75.5653 45.4853C75.5761 45.902 75.5336 46.3458 75.4378 46.8166Z" fill="white"/>
</svg>
