<svg width="120" height="123" viewBox="0 0 120 123" fill="none" xmlns="http://www.w3.org/2000/svg" xmlns:xlink="http://www.w3.org/1999/xlink">
<rect width="120" height="122.381" rx="60" fill="white" fill-opacity="0.1"/>
<rect x="10" y="10" width="100" height="102.381" rx="50" fill="url(#paint0_linear_1549_5814)"/>
<rect x="10" y="10" width="100" height="102.381" rx="50" fill="url(#pattern0_1549_5814)" fill-opacity="0.05"/>
<rect x="10" y="10" width="100" height="102.381" rx="50" fill="url(#paint1_linear_1549_5814)"/>
<path d="M48.0267 19.4872C48.8072 19.2567 49.5257 19.1859 50.1824 19.2748C50.839 19.3637 51.3973 19.5988 51.8575 19.9802C52.3187 20.3652 52.6459 20.8848 52.8391 21.5389L52.8424 21.55C53.0356 22.2041 53.0426 22.8163 52.8635 23.3864C52.6854 23.9602 52.345 24.4628 51.842 24.8942C51.3391 25.3256 50.6974 25.6565 49.9169 25.8871C49.1401 26.1165 48.4234 26.1867 47.7668 26.0978C47.1102 26.0089 46.5531 25.7713 46.0956 25.3852C45.6355 25.0039 45.3089 24.4862 45.1157 23.8321L45.1124 23.8209C44.9192 23.1668 44.9116 22.5528 45.0896 21.979C45.265 21.41 45.6042 20.9098 46.1072 20.4784C46.6101 20.047 47.25 19.7166 48.0267 19.4872ZM48.4087 20.7805C47.9999 20.9013 47.6632 21.0815 47.3986 21.3213C47.1341 21.5611 46.9599 21.8469 46.876 22.1787C46.7896 22.5154 46.8051 22.8825 46.9225 23.2802L46.9275 23.2969C47.046 23.6983 47.2325 24.015 47.4869 24.247C47.7413 24.4789 48.0446 24.6237 48.397 24.6813C48.7468 24.7436 49.1261 24.7144 49.5349 24.5937C49.9474 24.4719 50.2854 24.2892 50.5489 24.0457C50.8135 23.8059 50.9895 23.5196 51.0771 23.1866C51.1646 22.8537 51.1491 22.4865 51.0306 22.0851L51.0256 22.0684C50.9082 21.6707 50.7217 21.3541 50.4662 21.1184C50.2118 20.8864 49.9085 20.7417 49.5561 20.6841C49.2037 20.6265 48.8212 20.6587 48.4087 20.7805ZM42.0062 21.705L45.4708 27.0515L43.9146 28.0599L43.2603 27.0501L43.2164 27.0786C43.2842 27.561 43.2064 28.0109 42.9827 28.4283C42.7579 28.851 42.413 29.213 41.9479 29.5144C41.6195 29.7272 41.2936 29.8692 40.9702 29.9402C40.6435 30.0133 40.3285 30.0189 40.0251 29.9569C39.7217 29.8949 39.4364 29.7681 39.1691 29.5765L39.1203 29.6081C39.1663 29.957 39.1415 30.2894 39.046 30.6052C38.9527 30.9243 38.7983 31.2206 38.583 31.494C38.3644 31.7696 38.0909 32.0138 37.7624 32.2266C37.2746 32.5427 36.8032 32.7166 36.3481 32.7483C35.8897 32.7821 35.461 32.6835 35.062 32.4526C34.6652 32.2249 34.3118 31.872 34.002 31.394L31.9473 28.2231L33.5035 27.2148L35.3496 30.0636C35.5519 30.3758 35.7697 30.6087 36.0031 30.7622C36.2333 30.9179 36.4801 30.9888 36.7436 30.975C37.0039 30.9634 37.2788 30.8638 37.5682 30.6762C37.8707 30.4802 38.0881 30.2493 38.2206 29.9834C38.3519 29.7228 38.4007 29.4418 38.367 29.1404C38.3333 28.839 38.2174 28.5354 38.0193 28.2297L36.2207 25.454L37.7378 24.4709L39.6028 27.3491C39.7967 27.6483 40.0093 27.873 40.2406 28.0233C40.4719 28.1736 40.7193 28.2418 40.9828 28.2281C41.2431 28.2164 41.5163 28.1179 41.8025 27.9324C42.0984 27.7406 42.3126 27.5118 42.4451 27.2459C42.5776 26.98 42.6248 26.693 42.5869 26.3851C42.5511 26.0805 42.4321 25.772 42.2298 25.4598L40.4501 22.7134L42.0062 21.705ZM28.2305 31.6157C28.5971 31.195 28.9748 30.8765 29.3637 30.6602C29.7526 30.4439 30.1345 30.3449 30.5093 30.3631C30.8815 30.3841 31.2298 30.536 31.5541 30.8185L31.5629 30.8262C31.8405 31.068 32.0206 31.3509 32.1033 31.6748C32.186 31.9987 32.1509 32.3665 31.9979 32.778C31.8479 33.1921 31.5621 33.6498 31.1407 34.1513L28.8263 36.9226L28.0725 36.2658L30.1915 33.7098C30.4755 33.3661 30.6327 33.0765 30.6632 32.841C30.6912 32.6083 30.6175 32.4156 30.4422 32.2629L30.4334 32.2553C30.2143 32.0643 29.9588 32.0242 29.6671 32.1349C29.3782 32.2482 29.0874 32.4728 28.7946 32.8088C28.507 33.139 28.3028 33.4648 28.1821 33.7862C28.0617 34.1131 28.0248 34.415 28.0713 34.692C28.1208 34.9715 28.258 35.2093 28.483 35.4053L29.5874 36.3676C29.8767 36.6196 30.1982 36.7018 30.552 36.6143C30.9033 36.5297 31.2609 36.2785 31.6249 35.8607C31.938 35.5013 32.1333 35.1652 32.2106 34.8522C32.2909 34.5418 32.2614 34.2719 32.122 34.0425L32.0989 34.0071L33.2521 32.6835L33.2965 32.7299C33.5553 33.0581 33.7049 33.4351 33.7451 33.8608C33.7883 34.2891 33.714 34.7461 33.5222 35.2317C33.3307 35.7228 33.0135 36.2225 32.5706 36.7309C32.0793 37.2948 31.586 37.7105 31.0908 37.9781C30.5985 38.2482 30.1217 38.3647 29.6605 38.3278C29.1996 38.2963 28.7705 38.1075 28.3731 37.7613L25.3315 35.1112L26.5458 33.7175L27.3347 34.4048L27.3729 34.361C27.2859 34.0951 27.262 33.8069 27.3011 33.4966C27.3405 33.1918 27.4385 32.8788 27.5949 32.5576C27.7514 32.2365 27.9632 31.9225 28.2305 31.6157ZM23.0238 38.8747L29.79 39.5247L28.9768 41.2105L24.1162 40.5569L24.0935 40.604L27.5348 44.2001L26.7797 45.7655L21.8256 45.3056L21.8004 45.3579L25.3377 48.7551L24.527 50.4357L19.8064 45.5449L20.66 43.7752L25.4548 44.1906L25.4826 44.133L22.1727 40.6391L23.0238 38.8747ZM17.3539 53.1638C17.4996 52.3474 17.7531 51.6664 18.1142 51.1206C18.4791 50.5756 18.9325 50.1861 19.4742 49.9521C20.019 49.7226 20.6347 49.6692 21.3214 49.7917L21.3272 49.7927C22.0024 49.9133 22.5572 50.1796 22.9914 50.5917C23.4295 51.0044 23.7303 51.5246 23.8939 52.1521C24.0612 52.7804 24.0743 53.4794 23.9329 54.2494C23.7888 55.0346 23.5287 55.6869 23.1526 56.2063C22.7758 56.7295 22.3122 57.0995 21.7618 57.3162C21.2107 57.5367 20.6013 57.5873 19.9337 57.4682L19.5675 57.4028L20.7695 50.6675L21.7881 50.8493L20.7944 56.4172L20.1277 55.7196L20.4997 55.786C20.8773 55.8534 21.2162 55.8292 21.5164 55.7135C21.8165 55.5978 22.0663 55.4003 22.2657 55.121C22.469 54.8423 22.6088 54.4894 22.685 54.0621C22.7647 53.6157 22.7603 53.2213 22.6718 52.8788C22.5872 52.537 22.419 52.255 22.1673 52.033C21.915 51.8147 21.5828 51.6688 21.1708 51.5953L20.8904 51.5453C20.4326 51.4636 20.0452 51.4948 19.7282 51.639C19.4143 51.7877 19.1625 52.0183 18.9729 52.3308C18.7864 52.6479 18.6554 53.0182 18.5798 53.4416C18.528 53.7316 18.5109 54.0041 18.5284 54.2591C18.5496 54.5148 18.5999 54.7403 18.6792 54.9356C18.7579 55.1346 18.8638 55.2913 18.9969 55.4056L19.0339 55.4299L18.7255 57.1581L18.6723 57.125C18.3873 56.9796 18.1414 56.7803 17.9347 56.5269C17.7318 56.2741 17.5728 55.9741 17.4576 55.6269C17.3456 55.2841 17.2795 54.9042 17.2594 54.4873C17.2387 54.0742 17.2702 53.633 17.3539 53.1638ZM63.6321 104.272C62.8219 104.349 62.1032 104.28 61.4758 104.067C60.8485 103.854 60.3456 103.516 59.9672 103.053C59.5884 102.587 59.367 102.014 59.3029 101.335L59.3018 101.324C59.2378 100.645 59.3483 100.043 59.6335 99.5174C59.9183 98.9884 60.3489 98.5605 60.9253 98.2336C61.5017 97.9068 62.195 97.7051 63.0052 97.6286C63.8115 97.5525 64.5284 97.6211 65.1557 97.8344C65.7831 98.0477 66.2842 98.3877 66.6591 98.8544C67.0375 99.317 67.2588 99.8877 67.3228 100.567L67.3239 100.578C67.388 101.257 67.2776 101.861 66.9928 102.39C66.7115 102.915 66.2826 103.341 65.7062 103.668C65.1298 103.995 64.4385 104.196 63.6321 104.272ZM63.5054 102.93C63.9298 102.89 64.2949 102.777 64.6005 102.593C64.9062 102.408 65.132 102.161 65.2779 101.852C65.4274 101.538 65.4826 101.174 65.4436 100.762L65.442 100.744C65.4027 100.328 65.2805 99.981 65.0753 99.7045C64.8702 99.4281 64.6002 99.2278 64.2654 99.1037C63.9341 98.9754 63.5563 98.9312 63.1319 98.9713C62.7036 99.0117 62.3369 99.1261 62.0316 99.3145C61.7259 99.499 61.4982 99.7463 61.3484 100.056C61.1986 100.366 61.1433 100.73 61.1827 101.146L61.1843 101.164C61.2233 101.576 61.3455 101.923 61.551 102.203C61.7561 102.48 62.0261 102.68 62.3609 102.804C62.6957 102.928 63.0772 102.97 63.5054 102.93ZM69.9671 103.252L67.5978 97.3377L69.3191 96.6481L69.7666 97.7651L69.8152 97.7456C69.8415 97.2591 70.0047 96.8327 70.3045 96.4662C70.6066 96.0948 71.0148 95.806 71.5292 95.5999C71.8926 95.4543 72.2397 95.3779 72.5707 95.3705C72.9054 95.3617 73.2155 95.4169 73.5013 95.5362C73.787 95.6555 74.0426 95.8349 74.268 96.0744L74.3219 96.0528C74.3441 95.7016 74.4324 95.3803 74.587 95.0888C74.7401 94.7936 74.9486 94.5327 75.2126 94.3058C75.4802 94.0776 75.7956 93.8907 76.159 93.7451C76.6986 93.5289 77.1947 93.4492 77.6474 93.5058C78.1036 93.5609 78.5053 93.7403 78.8523 94.0438C79.1979 94.3437 79.4766 94.758 79.6884 95.2868L81.0935 98.7942L79.3722 99.4838L78.1098 96.3325C77.9714 95.9872 77.8025 95.7167 77.6031 95.5211C77.4073 95.324 77.1787 95.2068 76.9175 95.1696C76.6598 95.1308 76.3709 95.1756 76.0508 95.3039C75.7162 95.4379 75.4583 95.6226 75.2771 95.858C75.0981 96.0884 74.996 96.3547 74.971 96.657C74.946 96.9592 75.0012 97.2794 75.1367 97.6176L76.3667 100.688L74.6885 101.36L73.4131 98.1765C73.2805 97.8456 73.1152 97.5841 72.9172 97.3921C72.7192 97.2 72.4896 97.0854 72.2284 97.0481C71.9707 97.0094 71.6836 97.0534 71.3671 97.1802C71.0397 97.3114 70.7854 97.4947 70.6042 97.7301C70.423 97.9655 70.3213 98.2379 70.2992 98.5474C70.2756 98.8532 70.333 99.1788 70.4713 99.5242L71.6884 102.562L69.9671 103.252ZM85.3895 96.1768C84.9494 96.5198 84.5178 96.7604 84.0948 96.8985C83.6718 97.0365 83.2781 97.0609 82.9136 96.9715C82.5522 96.8798 82.2393 96.6642 81.9749 96.325L81.9678 96.3158C81.7414 96.0254 81.6186 95.7133 81.5992 95.3796C81.5799 95.0459 81.6846 94.6916 81.9133 94.3168C82.1396 93.939 82.5075 93.5442 83.0169 93.1324L85.8177 90.8538L86.4323 91.6424L83.8643 93.747C83.52 94.0301 83.3103 94.2843 83.2354 94.5098C83.1636 94.7328 83.1991 94.936 83.3421 95.1194L83.3492 95.1286C83.5279 95.3578 83.771 95.4459 84.0785 95.393C84.3837 95.3369 84.712 95.1719 85.0635 94.898C85.4089 94.6288 85.6715 94.348 85.8514 94.0555C86.0319 93.7576 86.1258 93.4682 86.133 93.1875C86.1378 92.9037 86.0485 92.6441 85.8651 92.4087L84.9646 91.2533C84.7288 90.9507 84.4289 90.8086 84.0649 90.827C83.7039 90.843 83.3049 91.0213 82.8678 91.362C82.4918 91.655 82.236 91.9477 82.1004 92.2401C81.9623 92.5295 81.9398 92.8001 82.0329 93.0518L82.0487 93.0911L80.6641 94.1702L80.6293 94.1162C80.438 93.7446 80.3631 93.3459 80.4049 92.9204C80.4442 92.4917 80.6044 92.0574 80.8854 91.6173C81.167 91.1718 81.5738 90.7418 82.1056 90.3273C82.6955 89.8675 83.2591 89.5536 83.7963 89.3855C84.3311 89.2143 84.8214 89.1909 85.2671 89.3152C85.7134 89.4341 86.0986 89.7014 86.4226 90.117L88.9025 93.299L87.4445 94.4353L86.8013 93.61L86.7554 93.6457C86.79 93.9234 86.7585 94.2108 86.6609 94.5079C86.564 94.7996 86.4081 95.0882 86.1933 95.3735C85.9784 95.6589 85.7105 95.9267 85.3895 96.1768ZM91.8886 90.0471L85.373 88.1101L86.4948 86.6117L91.1395 88.1865L91.1708 88.1446L88.484 83.9547L89.5257 82.5633L94.2992 83.966L94.3341 83.9194L91.5149 79.9063L92.6331 78.4126L96.3269 84.1188L95.1494 85.6917L90.5235 84.3633L90.4852 84.4145L93.0626 88.479L91.8886 90.0471ZM100.205 77.1152C99.9035 77.8879 99.5229 78.507 99.0629 78.9724C98.5992 79.4364 98.079 79.7306 97.5023 79.8552C96.9233 79.9748 96.3088 79.908 95.6589 79.6547L95.6535 79.6526C95.0144 79.4035 94.5217 79.0348 94.1756 78.5463C93.8258 78.0565 93.6314 77.4879 93.5926 76.8406C93.5501 76.1918 93.6728 75.5035 93.9606 74.7755C94.2541 74.0331 94.6357 73.4436 95.1053 73.0069C95.5764 72.5666 96.1029 72.2934 96.6848 72.1875C97.2682 72.078 97.8758 72.1463 98.5077 72.3926L98.8543 72.5277L96.37 78.9024L95.406 78.5267L97.4597 73.2568L97.9786 74.0705L97.6266 73.9333C97.2691 73.794 96.9319 73.752 96.6151 73.8073C96.2982 73.8627 96.0149 74.0081 95.7651 74.2435C95.5117 74.4774 95.3062 74.7966 95.1486 75.201C94.984 75.6235 94.9119 76.0113 94.9323 76.3645C94.9491 76.7162 95.0594 77.0254 95.2633 77.292C95.4686 77.555 95.7662 77.7625 96.1561 77.9145L96.4215 78.0179C96.8548 78.1868 97.241 78.2312 97.5799 78.1512C97.9167 78.0661 98.2083 77.8886 98.4549 77.6187C98.6993 77.3438 98.8996 77.006 99.0558 76.6052C99.1628 76.3308 99.2324 76.0667 99.2647 75.8131C99.2933 75.5581 99.2877 75.3272 99.2477 75.1203C99.2091 74.9098 99.1356 74.7355 99.0271 74.5976L98.9956 74.5666L99.633 72.9309L99.6787 72.9737C99.9302 73.1715 100.133 73.4148 100.286 73.7034C100.437 73.9906 100.534 74.3158 100.58 74.6788C100.624 75.0368 100.615 75.4222 100.554 75.8351C100.494 76.2444 100.378 76.6711 100.205 77.1152Z" fill="#00C0E8"/>
<defs>
<linearGradient id="paint0_linear_1549_5814" x1="60" y1="10" x2="60" y2="112.381" gradientUnits="userSpaceOnUse">
<stop stop-color="#F2F2F7"/>
<stop offset="1" stop-color="#DAE9FF"/>
</linearGradient>
<linearGradient id="paint1_linear_1549_5814" x1="60" y1="26.2826" x2="60" y2="76.4773" gradientUnits="userSpaceOnUse">
<stop stop-color="white"/>
<stop offset="1" stop-color="white" stop-opacity="0"/>
</linearGradient>
<pattern id="pattern0_1549_5814" patternUnits="userSpaceOnUse" patternTransform="matrix(36.176 0 0 41.888 55.2247 56.4199)" preserveAspectRatio="none" viewBox="2.47754 3.98438 53.2 61.6" width="1" height="1">
<g id="pattern0_1549_5814_inner">
<path d="M10.5708 16.9668C10.5708 17.2546 10.4657 17.5036 10.2554 17.7139C10.0451 17.9242 9.79329 18.0293 9.5 18.0293C9.20117 18.0293 8.94938 17.9242 8.74463 17.7139C8.53988 17.5036 8.4375 17.2546 8.4375 16.9668V5.05518C8.4375 4.76188 8.53988 4.51009 8.74463 4.2998C8.94938 4.08952 9.20117 3.98438 9.5 3.98438C9.79329 3.98438 10.0451 4.08952 10.2554 4.2998C10.4657 4.51009 10.5708 4.76188 10.5708 5.05518V16.9668ZM3.54834 12.0776C3.25505 12.0776 3.00326 11.9753 2.79297 11.7705C2.58268 11.5602 2.47754 11.3057 2.47754 11.0068C2.47754 10.7135 2.58268 10.4618 2.79297 10.2515C3.00326 10.0412 3.25505 9.93604 3.54834 9.93604H15.46C15.7477 9.93604 15.9967 10.0412 16.207 10.2515C16.4173 10.4618 16.5225 10.7135 16.5225 11.0068C16.5225 11.3057 16.4173 11.5602 16.207 11.7705C15.9967 11.9753 15.7477 12.0776 15.46 12.0776H3.54834Z" fill="#0D009D"/>
</g>
</pattern></defs>
</svg>
