<svg width="384" height="84" viewBox="0 0 384 84" fill="none" xmlns="http://www.w3.org/2000/svg" xmlns:xlink="http://www.w3.org/1999/xlink">
<g clip-path="url(#clip0_809_3140)">
<rect x="0.75" y="0.75" width="382" height="82" rx="24" fill="#00C8B3"/>
<rect x="0.75" y="0.75" width="382" height="82" rx="24" fill="url(#pattern0_809_3140)" fill-opacity="0.05"/>
<rect x="0.75" y="0.75" width="382" height="82" rx="24" fill="url(#paint0_linear_809_3140)"/>
<path d="M313.25 94.6016C308.023 94.6016 303.109 93.6139 298.508 91.6387C293.931 89.6634 289.908 86.9414 286.439 83.4727C282.971 80.0039 280.249 75.9811 278.273 71.4043C276.298 66.8034 275.311 61.8893 275.311 56.6621C275.311 51.4349 276.298 46.5329 278.273 41.9561C280.249 37.3551 282.971 33.3203 286.439 29.8516C289.908 26.3587 293.931 23.6367 298.508 21.6855C303.109 19.7103 308.023 18.7227 313.25 18.7227C318.501 18.7227 323.415 19.7103 327.992 21.6855C332.593 23.6367 336.628 26.3587 340.097 29.8516C343.565 33.3203 346.275 37.3551 348.227 41.9561C350.202 46.5329 351.189 51.4349 351.189 56.6621C351.189 61.8893 350.202 66.8034 348.227 71.4043C346.275 75.9811 343.565 80.0039 340.097 83.4727C336.628 86.9414 332.593 89.6634 327.992 91.6387C323.415 93.6139 318.501 94.6016 313.25 94.6016ZM294.208 59.625H308.336C309.203 59.625 309.637 60.0706 309.637 60.9619V74.9453C309.637 76.1497 309.998 77.041 310.721 77.6191C311.467 78.1732 312.286 78.3418 313.178 78.125C314.093 77.9082 314.816 77.2337 315.346 76.1016L330.377 43.6543C330.883 42.5221 330.943 41.4984 330.558 40.583C330.172 39.6436 329.51 38.9811 328.57 38.5957C327.655 38.2103 326.643 38.2705 325.535 38.7764L293.088 53.916C291.956 54.446 291.281 55.1686 291.064 56.084C290.848 56.9753 291.016 57.7943 291.57 58.541C292.148 59.2637 293.028 59.625 294.208 59.625Z" fill="white"/>
<path d="M247.229 19.9819V17.5486C247.229 16.5045 247.436 15.5985 247.85 14.8305C248.273 14.0539 248.869 13.4585 249.637 13.0444C250.405 12.6215 251.319 12.4101 252.381 12.4101H254.866C255.28 12.4101 255.634 12.5568 255.927 12.8502C256.22 13.135 256.367 13.4844 256.367 13.8986C256.367 14.3214 256.22 14.6795 255.927 14.9729C255.634 15.2663 255.28 15.4129 254.866 15.4129H252.381C251.699 15.4129 251.168 15.6028 250.789 15.9824C250.418 16.3535 250.232 16.8755 250.232 17.5486V19.9819C250.232 20.3961 250.085 20.7498 249.792 21.0432C249.499 21.3366 249.145 21.4833 248.731 21.4833C248.316 21.4833 247.963 21.3366 247.669 21.0432C247.376 20.7498 247.229 20.3961 247.229 19.9819ZM273.271 19.9819C273.271 20.3961 273.12 20.7498 272.818 21.0432C272.524 21.3366 272.171 21.4833 271.756 21.4833C271.342 21.4833 270.988 21.3366 270.695 21.0432C270.41 20.7498 270.268 20.3961 270.268 19.9819V17.5486C270.268 16.8755 270.082 16.3535 269.711 15.9824C269.34 15.6028 268.81 15.4129 268.119 15.4129H265.634C265.212 15.4129 264.853 15.2663 264.56 14.9729C264.275 14.6795 264.133 14.3214 264.133 13.8986C264.133 13.4844 264.275 13.135 264.56 12.8502C264.853 12.5568 265.212 12.4101 265.634 12.4101H268.119C269.172 12.4101 270.082 12.6215 270.85 13.0444C271.627 13.4585 272.222 14.0539 272.637 14.8305C273.059 15.5985 273.271 16.5045 273.271 17.5486V19.9819ZM247.229 30.8671C247.229 30.4529 247.376 30.0991 247.669 29.8057C247.963 29.5123 248.316 29.3657 248.731 29.3657C249.145 29.3657 249.499 29.5123 249.792 29.8057C250.085 30.0991 250.232 30.4529 250.232 30.8671V33.3004C250.232 33.9734 250.418 34.4955 250.789 34.8665C251.168 35.2462 251.699 35.436 252.381 35.436H254.866C255.28 35.436 255.634 35.5827 255.927 35.8761C256.22 36.1694 256.367 36.5275 256.367 36.9503C256.367 37.3645 256.22 37.7183 255.927 38.0117C255.634 38.305 255.28 38.4517 254.866 38.4517H252.381C251.319 38.4517 250.405 38.2403 249.637 37.8175C248.869 37.3947 248.273 36.7993 247.85 36.0314C247.436 35.2634 247.229 34.3531 247.229 33.3004V30.8671ZM273.271 30.8671V33.3004C273.271 34.3531 273.059 35.2634 272.637 36.0314C272.222 36.7993 271.627 37.3947 270.85 37.8175C270.082 38.2403 269.172 38.4517 268.119 38.4517H265.634C265.212 38.4517 264.853 38.305 264.56 38.0117C264.275 37.7183 264.133 37.3645 264.133 36.9503C264.133 36.5275 264.275 36.1694 264.56 35.8761C264.853 35.5827 265.212 35.436 265.634 35.436H268.119C268.81 35.436 269.34 35.2462 269.711 34.8665C270.082 34.4955 270.268 33.9734 270.268 33.3004V30.8671C270.268 30.4529 270.41 30.0991 270.695 29.8057C270.988 29.5123 271.342 29.3657 271.756 29.3657C272.171 29.3657 272.524 29.5123 272.818 29.8057C273.12 30.0991 273.271 30.4529 273.271 30.8671ZM253.973 26.4534C253.567 26.4534 253.269 26.3326 253.079 26.091C252.89 25.8408 252.829 25.5604 252.898 25.2497C252.967 24.9391 253.196 24.6975 253.584 24.5249L264.677 19.3477C265.056 19.1751 265.401 19.1535 265.712 19.2829C266.031 19.4124 266.256 19.6324 266.385 19.943C266.514 20.2537 266.493 20.5988 266.32 20.9785L261.182 32.0837C261.001 32.472 260.755 32.7007 260.444 32.7697C260.142 32.8387 259.866 32.7783 259.616 32.5885C259.366 32.3987 259.24 32.101 259.24 31.6954V26.9065C259.24 26.6044 259.094 26.4534 258.8 26.4534H253.973Z" fill="white"/>
<path d="M355.149 19.9425C354.873 19.9425 354.67 19.8605 354.541 19.6966C354.411 19.524 354.368 19.3341 354.411 19.1271C354.463 18.9113 354.618 18.7388 354.877 18.6093L362.475 15.0759C362.742 14.9551 362.98 14.9378 363.187 15.0241C363.402 15.1104 363.553 15.2614 363.64 15.4771C363.735 15.6928 363.722 15.9301 363.601 16.189L360.08 23.7995C359.96 24.0584 359.796 24.2137 359.588 24.2655C359.381 24.3086 359.192 24.2655 359.019 24.1361C358.846 24.0066 358.76 23.7995 358.76 23.5148V20.2402C358.76 20.0417 358.661 19.9425 358.462 19.9425H355.149ZM348.794 19.1529C348.794 17.6602 349.074 16.2623 349.635 14.9594C350.196 13.6478 350.968 12.4959 351.952 11.5035C352.944 10.5112 354.092 9.73897 355.395 9.18673C356.706 8.62586 358.109 8.34542 359.601 8.34542C361.094 8.34542 362.492 8.62586 363.795 9.18673C365.098 9.73897 366.246 10.5112 367.238 11.5035C368.23 12.4959 369.007 13.6478 369.568 14.9594C370.129 16.2623 370.409 17.6602 370.409 19.1529C370.409 20.2315 370.254 21.2627 369.943 22.2464C369.641 23.2214 369.214 24.1231 368.662 24.9515L373.994 30.3099C374.236 30.5429 374.413 30.8061 374.525 31.0995C374.637 31.4015 374.693 31.7121 374.693 32.0314C374.693 32.4887 374.59 32.9029 374.383 33.2739C374.175 33.6449 373.886 33.9383 373.515 34.154C373.153 34.3698 372.739 34.4776 372.273 34.4776C371.954 34.4776 371.639 34.4172 371.328 34.2964C371.026 34.1842 370.758 34.0117 370.525 33.7787L365.128 28.3814C364.326 28.8732 363.458 29.2615 362.527 29.5463C361.595 29.8224 360.62 29.9605 359.601 29.9605C358.109 29.9605 356.706 29.68 355.395 29.1192C354.092 28.5583 352.944 27.7817 351.952 26.7894C350.968 25.7971 350.196 24.6495 349.635 23.3465C349.074 22.0436 348.794 20.6457 348.794 19.1529ZM352.107 19.1529C352.107 20.1884 352.302 21.1591 352.69 22.0652C353.078 22.9625 353.617 23.7564 354.308 24.4467C354.998 25.1284 355.792 25.6633 356.689 26.0516C357.595 26.4399 358.566 26.6341 359.601 26.6341C360.637 26.6341 361.603 26.4399 362.501 26.0516C363.407 25.6633 364.201 25.1284 364.882 24.4467C365.573 23.7564 366.112 22.9625 366.5 22.0652C366.888 21.1591 367.083 20.1884 367.083 19.1529C367.083 18.1175 366.888 17.1511 366.5 16.2537C366.112 15.3477 365.573 14.5495 364.882 13.8592C364.201 13.1689 363.407 12.6339 362.501 12.2542C361.603 11.866 360.637 11.6718 359.601 11.6718C358.566 11.6718 357.595 11.866 356.689 12.2542C355.792 12.6339 354.998 13.1689 354.308 13.8592C353.617 14.5495 353.078 15.3477 352.69 16.2537C352.302 17.1511 352.107 18.1175 352.107 19.1529Z" fill="white"/>
</g>
<rect x="0.75" y="0.75" width="382" height="82" rx="24" stroke="#767680" stroke-opacity="0.12" stroke-width="1.5"/>
<defs>
<linearGradient id="paint0_linear_809_3140" x1="138.25" y1="-11.25" x2="325.438" y2="107.035" gradientUnits="userSpaceOnUse">
<stop stop-color="white"/>
<stop offset="1" stop-color="white" stop-opacity="0"/>
</linearGradient>
<clipPath id="clip0_809_3140">
<rect x="0.75" y="0.75" width="382" height="82" rx="24" fill="white"/>
</clipPath>
<pattern id="pattern0_809_3140" patternUnits="userSpaceOnUse" patternTransform="matrix(18.8784 0 0 21.8592 185.289 35.2956)" preserveAspectRatio="none" viewBox="2.47754 3.98438 20.52 23.76" width="1" height="1">
<g id="pattern0_809_3140_inner">
<path d="M10.5708 16.9668C10.5708 17.2546 10.4657 17.5036 10.2554 17.7139C10.0451 17.9242 9.79329 18.0293 9.5 18.0293C9.20117 18.0293 8.94938 17.9242 8.74463 17.7139C8.53988 17.5036 8.4375 17.2546 8.4375 16.9668V5.05518C8.4375 4.76188 8.53988 4.51009 8.74463 4.2998C8.94938 4.08952 9.20117 3.98438 9.5 3.98438C9.79329 3.98438 10.0451 4.08952 10.2554 4.2998C10.4657 4.51009 10.5708 4.76188 10.5708 5.05518V16.9668ZM3.54834 12.0776C3.25505 12.0776 3.00326 11.9753 2.79297 11.7705C2.58268 11.5602 2.47754 11.3057 2.47754 11.0068C2.47754 10.7135 2.58268 10.4618 2.79297 10.2515C3.00326 10.0412 3.25505 9.93604 3.54834 9.93604H15.46C15.7477 9.93604 15.9967 10.0412 16.207 10.2515C16.4173 10.4618 16.5225 10.7135 16.5225 11.0068C16.5225 11.3057 16.4173 11.5602 16.207 11.7705C15.9967 11.9753 15.7477 12.0776 15.46 12.0776H3.54834Z" fill="#0D009D"/>
</g>
</pattern></defs>
</svg>
