<svg width="402" height="874" viewBox="0 0 402 874" fill="none" xmlns="http://www.w3.org/2000/svg" xmlns:xlink="http://www.w3.org/1999/xlink">
<rect width="402" height="874" fill="url(#paint0_linear_347_1285)"/>
<rect width="402" height="874" fill="url(#pattern0_347_1285)" fill-opacity="0.05"/>
<rect width="402" height="874" fill="url(#paint1_linear_347_1285)"/>
<defs>
<linearGradient id="paint0_linear_347_1285" x1="201" y1="0" x2="201" y2="874" gradientUnits="userSpaceOnUse">
<stop stop-color="#F2F2F7"/>
<stop offset="1" stop-color="#DAE9FF"/>
</linearGradient>
<linearGradient id="paint1_linear_347_1285" x1="201" y1="139" x2="201" y2="567.5" gradientUnits="userSpaceOnUse">
<stop stop-color="white"/>
<stop offset="1" stop-color="white" stop-opacity="0"/>
</linearGradient>
<pattern id="pattern0_347_1285" patternUnits="userSpaceOnUse" patternTransform="matrix(36.176 0 0 41.888 196.225 432.229)" preserveAspectRatio="none" viewBox="2.47754 3.98438 53.2 61.6" width="1" height="1">
<g id="pattern0_347_1285_inner">
<path d="M10.5708 16.9668C10.5708 17.2546 10.4657 17.5036 10.2554 17.7139C10.0451 17.9242 9.79329 18.0293 9.5 18.0293C9.20117 18.0293 8.94938 17.9242 8.74463 17.7139C8.53988 17.5036 8.4375 17.2546 8.4375 16.9668V5.05518C8.4375 4.76188 8.53988 4.51009 8.74463 4.2998C8.94938 4.08952 9.20117 3.98438 9.5 3.98438C9.79329 3.98438 10.0451 4.08952 10.2554 4.2998C10.4657 4.51009 10.5708 4.76188 10.5708 5.05518V16.9668ZM3.54834 12.0776C3.25505 12.0776 3.00326 11.9753 2.79297 11.7705C2.58268 11.5602 2.47754 11.3057 2.47754 11.0068C2.47754 10.7135 2.58268 10.4618 2.79297 10.2515C3.00326 10.0412 3.25505 9.93604 3.54834 9.93604H15.46C15.7477 9.93604 15.9967 10.0412 16.207 10.2515C16.4173 10.4618 16.5225 10.7135 16.5225 11.0068C16.5225 11.3057 16.4173 11.5602 16.207 11.7705C15.9967 11.9753 15.7477 12.0776 15.46 12.0776H3.54834Z" fill="#0D009D"/>
</g>
</pattern></defs>
</svg>
