<svg width="48" height="47" viewBox="0 0 48 47" fill="none" xmlns="http://www.w3.org/2000/svg">
<path d="M20.7591 1.17368C22.6201 -0.391228 25.3369 -0.391231 27.1979 1.17368L31.9113 5.13722C32.5538 5.67745 33.3218 6.04732 34.1447 6.21277L40.1823 7.42665C42.5661 7.90593 44.26 10.03 44.1968 12.4607L44.0368 18.617C44.015 19.4561 44.2047 20.2872 44.5884 21.0338L47.4037 26.511C48.5153 28.6735 47.9107 31.3222 45.971 32.7883L41.058 36.5016C40.3883 37.0077 39.8568 37.6742 39.5124 38.4397L36.9854 44.0558C35.9877 46.2732 33.54 47.4519 31.1843 46.8494L25.218 45.3235C24.4048 45.1155 23.5523 45.1155 22.7391 45.3235L16.7727 46.8494C14.417 47.4519 11.9693 46.2732 10.9716 44.0558L8.44464 38.4397C8.10022 37.6742 7.56871 37.0077 6.89908 36.5016L1.98608 32.7883C0.0462923 31.3222 -0.558249 28.6735 0.553319 26.511L3.36865 21.0338C3.75237 20.2872 3.94206 19.4561 3.92025 18.617L3.76021 12.4607C3.69702 10.03 5.3909 7.90593 7.77471 7.42665L13.8123 6.21277C14.6352 6.04732 15.4033 5.67745 16.0457 5.13722L20.7591 1.17368Z" fill="white" fill-opacity="0.1"/>
</svg>
