<svg width="143" height="143" viewBox="0 0 143 143" fill="none" xmlns="http://www.w3.org/2000/svg" xmlns:xlink="http://www.w3.org/1999/xlink">
<g filter="url(#filter0_d_458_2812)">
<rect x="21.4004" y="21.4" width="100" height="100" rx="50" fill="url(#paint0_linear_458_2812)" shape-rendering="crispEdges"/>
<rect x="21.4004" y="21.4" width="100" height="100" rx="50" fill="url(#pattern0_458_2812)" fill-opacity="0.02" shape-rendering="crispEdges"/>
<rect x="22.9004" y="22.9" width="97" height="97" rx="48.5" stroke="url(#paint1_linear_458_2812)" stroke-width="3" shape-rendering="crispEdges"/>
<path d="M68.181 48.1072C70.042 46.5423 72.7588 46.5423 74.6198 48.1072L79.3332 52.0707C79.9756 52.6109 80.7437 52.9808 81.5666 53.1463L87.6042 54.3601C89.988 54.8394 91.6819 56.9635 91.6187 59.3942L91.4587 65.5505C91.4368 66.3896 91.6265 67.2207 92.0103 67.9672L94.8256 73.4445C95.9372 75.607 95.3326 78.2557 93.3928 79.7218L88.4798 83.4351C87.8102 83.9412 87.2787 84.6077 86.9343 85.3732L84.4073 90.9893C83.4096 93.2067 80.9619 94.3854 78.6062 93.7829L72.6398 92.257C71.8266 92.049 70.9742 92.049 70.1609 92.257L64.1946 93.7829C61.8389 94.3854 59.3912 93.2067 58.3935 90.9893L55.8665 85.3732C55.5221 84.6077 54.9906 83.9412 54.321 83.4351L49.408 79.7218C47.4682 78.2557 46.8636 75.607 47.9752 73.4445L50.7905 67.9672C51.1742 67.2207 51.3639 66.3896 51.3421 65.5505L51.1821 59.3942C51.1189 56.9635 52.8128 54.8394 55.1966 54.3601L61.2342 53.1463C62.0571 52.9808 62.8251 52.6109 63.4676 52.0707L68.181 48.1072Z" fill="white" fill-opacity="0.1"/>
<path d="M69.4932 79.276V73.9137C69.4932 73.7255 69.5513 73.5733 69.6675 73.4571C69.7837 73.3409 69.9386 73.2828 70.1323 73.2828H73.6768C73.8704 73.2828 74.0226 73.3409 74.1333 73.4571C74.2495 73.5733 74.3076 73.7255 74.3076 73.9137V79.276H69.4932ZM62.7031 71.5396C62.4818 71.5396 62.3075 71.4732 62.1802 71.3404C62.0529 71.2021 61.9893 71.0471 61.9893 70.8756C61.9893 70.6598 62.0778 70.4799 62.2549 70.336L70.9043 63.0728C71.2142 62.8072 71.5462 62.6744 71.9004 62.6744C72.2546 62.6744 72.5866 62.8072 72.8965 63.0728L81.5459 70.336C81.723 70.4799 81.8115 70.6598 81.8115 70.8756C81.8115 71.0471 81.7479 71.2021 81.6206 71.3404C81.4989 71.4732 81.3245 71.5396 81.0977 71.5396C80.9814 71.5396 80.8735 71.512 80.7739 71.4566C80.6799 71.4013 80.5913 71.3404 80.5083 71.274L72.1909 64.2931C72.1024 64.2156 72.0055 64.1768 71.9004 64.1768C71.7952 64.1768 71.6984 64.2156 71.6099 64.2931L63.3008 71.274C63.2122 71.3404 63.1182 71.4013 63.0186 71.4566C62.9245 71.512 62.8193 71.5396 62.7031 71.5396ZM77.3042 67.1319V65.148C77.3042 64.9654 77.3595 64.8215 77.4702 64.7164C77.5809 64.6057 77.7248 64.5504 77.9019 64.5504H78.79C78.9727 64.5504 79.1165 64.6057 79.2217 64.7164C79.3324 64.8215 79.3877 64.9654 79.3877 65.148V68.8917L77.3042 67.1319ZM66.2891 80.131C65.6969 80.131 65.2349 79.9705 64.9028 79.6495C64.5763 79.3341 64.4131 78.8831 64.4131 78.2965V69.0992L65.7495 68.2027V77.9644C65.7495 78.2356 65.8187 78.4404 65.957 78.5787C66.1009 78.7226 66.3057 78.7945 66.5713 78.7945H77.2378C77.5034 78.7945 77.7054 78.7226 77.8438 78.5787C77.9821 78.4404 78.0513 78.2356 78.0513 77.9644V68.1944L79.3877 69.0992V78.2965C79.3877 78.8775 79.2244 79.3285 78.8979 79.6495C78.5715 79.9705 78.1121 80.131 77.52 80.131H66.2891Z" fill="white"/>
</g>
<defs>
<filter id="filter0_d_458_2812" x="0.000391006" y="-5.72205e-06" width="142.8" height="142.8" filterUnits="userSpaceOnUse" color-interpolation-filters="sRGB">
<feFlood flood-opacity="0" result="BackgroundImageFix"/>
<feColorMatrix in="SourceAlpha" type="matrix" values="0 0 0 0 0 0 0 0 0 0 0 0 0 0 0 0 0 0 127 0" result="hardAlpha"/>
<feOffset/>
<feGaussianBlur stdDeviation="10.7"/>
<feComposite in2="hardAlpha" operator="out"/>
<feColorMatrix type="matrix" values="0 0 0 0 0 0 0 0 0 0.766667 0 0 0 0 1 0 0 0 0.5 0"/>
<feBlend mode="normal" in2="BackgroundImageFix" result="effect1_dropShadow_458_2812"/>
<feBlend mode="normal" in="SourceGraphic" in2="effect1_dropShadow_458_2812" result="shape"/>
</filter>
<linearGradient id="paint0_linear_458_2812" x1="88.2754" y1="112.65" x2="94.4856" y2="23.747" gradientUnits="userSpaceOnUse">
<stop stop-color="#03B9D6"/>
<stop offset="0.860577" stop-color="#7AE8FF"/>
</linearGradient>
<linearGradient id="paint1_linear_458_2812" x1="169.525" y1="166.4" x2="21.4004" y2="55.7766" gradientUnits="userSpaceOnUse">
<stop stop-color="#B9F3FF"/>
<stop offset="0.514423" stop-color="#53CBE4"/>
<stop offset="1" stop-color="#B9F3FF"/>
</linearGradient>
<pattern id="pattern0_458_2812" patternUnits="userSpaceOnUse" patternTransform="matrix(22.2148 0 0 25.7224 65.8526 65.8577)" preserveAspectRatio="none" viewBox="2.47754 3.98438 28.12 32.56" width="1" height="1">
<g id="pattern0_458_2812_inner">
<path d="M10.5708 16.9668C10.5708 17.2546 10.4657 17.5036 10.2554 17.7139C10.0451 17.9242 9.79329 18.0293 9.5 18.0293C9.20117 18.0293 8.94938 17.9242 8.74463 17.7139C8.53988 17.5036 8.4375 17.2546 8.4375 16.9668V5.05518C8.4375 4.76188 8.53988 4.51009 8.74463 4.2998C8.94938 4.08952 9.20117 3.98438 9.5 3.98438C9.79329 3.98438 10.0451 4.08952 10.2554 4.2998C10.4657 4.51009 10.5708 4.76188 10.5708 5.05518V16.9668ZM3.54834 12.0776C3.25505 12.0776 3.00326 11.9753 2.79297 11.7705C2.58268 11.5602 2.47754 11.3057 2.47754 11.0068C2.47754 10.7135 2.58268 10.4618 2.79297 10.2515C3.00326 10.0412 3.25505 9.93604 3.54834 9.93604H15.46C15.7477 9.93604 15.9967 10.0412 16.207 10.2515C16.4173 10.4618 16.5225 10.7135 16.5225 11.0068C16.5225 11.3057 16.4173 11.5602 16.207 11.7705C15.9967 11.9753 15.7477 12.0776 15.46 12.0776H3.54834Z" fill="#0D009D"/>
</g>
</pattern></defs>
</svg>
