<svg width="52" height="52" viewBox="0 0 52 52" fill="none" xmlns="http://www.w3.org/2000/svg">
<path d="M22.7806 2.70719C24.6416 1.14227 27.3584 1.14227 29.2194 2.70718L33.9328 6.67072C34.5752 7.21095 35.3433 7.58082 36.1662 7.74627L42.2038 8.96015C44.5876 9.43943 46.2815 11.5635 46.2183 13.9942L46.0583 20.1505C46.0364 20.9896 46.2261 21.8207 46.6099 22.5673L49.4252 28.0445C50.5368 30.207 49.9322 32.8557 47.9924 34.3218L43.0794 38.0351C42.4098 38.5412 41.8783 39.2077 41.5339 39.9732L39.0069 45.5893C38.0092 47.8067 35.5615 48.9854 33.2058 48.3829L27.2394 46.857C26.4262 46.649 25.5738 46.649 24.7606 46.857L18.7942 48.3829C16.4385 48.9854 13.9908 47.8067 12.9931 45.5893L10.4661 39.9732C10.1217 39.2077 9.5902 38.5412 8.92056 38.0351L4.00756 34.3218C2.06778 32.8557 1.46324 30.207 2.5748 28.0445L5.39013 22.5673C5.77385 21.8207 5.96355 20.9896 5.94173 20.1505L5.78169 13.9942C5.71851 11.5635 7.41238 9.43943 9.79619 8.96016L15.8338 7.74627C16.6567 7.58082 17.4248 7.21095 18.0672 6.67072L22.7806 2.70719Z" fill="white" fill-opacity="0.1"/>
<path d="M24.0928 33.876V28.5137C24.0928 28.3255 24.1509 28.1733 24.2671 28.0571C24.3833 27.9409 24.5382 27.8828 24.7319 27.8828H28.2764C28.4701 27.8828 28.6222 27.9409 28.7329 28.0571C28.8491 28.1733 28.9072 28.3255 28.9072 28.5137V33.876H24.0928ZM17.3027 26.1396C17.0814 26.1396 16.9071 26.0732 16.7798 25.9404C16.6525 25.8021 16.5889 25.6471 16.5889 25.4756C16.5889 25.2598 16.6774 25.0799 16.8545 24.936L25.5039 17.6729C25.8138 17.4072 26.1458 17.2744 26.5 17.2744C26.8542 17.2744 27.1862 17.4072 27.4961 17.6729L36.1455 24.936C36.3226 25.0799 36.4111 25.2598 36.4111 25.4756C36.4111 25.6471 36.3475 25.8021 36.2202 25.9404C36.0985 26.0732 35.9242 26.1396 35.6973 26.1396C35.5811 26.1396 35.4731 26.112 35.3735 26.0566C35.2795 26.0013 35.1909 25.9404 35.1079 25.874L26.7905 18.8931C26.702 18.8156 26.6051 18.7769 26.5 18.7769C26.3949 18.7769 26.298 18.8156 26.2095 18.8931L17.9004 25.874C17.8118 25.9404 17.7178 26.0013 17.6182 26.0566C17.5241 26.112 17.4189 26.1396 17.3027 26.1396ZM31.9038 21.7319V19.748C31.9038 19.5654 31.9591 19.4215 32.0698 19.3164C32.1805 19.2057 32.3244 19.1504 32.5015 19.1504H33.3896C33.5723 19.1504 33.7161 19.2057 33.8213 19.3164C33.932 19.4215 33.9873 19.5654 33.9873 19.748V23.4917L31.9038 21.7319ZM20.8887 34.731C20.2965 34.731 19.8345 34.5705 19.5024 34.2495C19.1759 33.9341 19.0127 33.4831 19.0127 32.8965V23.6992L20.3491 22.8027V32.5645C20.3491 32.8356 20.4183 33.0404 20.5566 33.1787C20.7005 33.3226 20.9053 33.3945 21.1709 33.3945H31.8374C32.103 33.3945 32.305 33.3226 32.4434 33.1787C32.5817 33.0404 32.6509 32.8356 32.6509 32.5645V22.7944L33.9873 23.6992V32.8965C33.9873 33.4775 33.8241 33.9285 33.4976 34.2495C33.1711 34.5705 32.7118 34.731 32.1196 34.731H20.8887Z" fill="white"/>
</svg>
