<svg width="143" height="143" viewBox="0 0 143 143" fill="none" xmlns="http://www.w3.org/2000/svg" xmlns:xlink="http://www.w3.org/1999/xlink">
<g filter="url(#filter0_d_458_2735)">
<rect x="21.4004" y="21.4" width="100" height="100" rx="50" fill="url(#paint0_linear_458_2735)" shape-rendering="crispEdges"/>
<rect x="21.4004" y="21.4" width="100" height="100" rx="50" fill="url(#pattern0_458_2735)" fill-opacity="0.02" shape-rendering="crispEdges"/>
<rect x="22.9004" y="22.9" width="97" height="97" rx="48.5" stroke="url(#paint1_linear_458_2735)" stroke-width="3" shape-rendering="crispEdges"/>
<path d="M68.181 48.1072C70.042 46.5423 72.7588 46.5423 74.6198 48.1072L79.3332 52.0707C79.9756 52.6109 80.7437 52.9808 81.5666 53.1463L87.6042 54.3602C89.988 54.8394 91.6819 56.9635 91.6187 59.3942L91.4587 65.5505C91.4368 66.3896 91.6265 67.2207 92.0103 67.9673L94.8256 73.4445C95.9372 75.607 95.3326 78.2557 93.3928 79.7218L88.4798 83.4351C87.8102 83.9412 87.2787 84.6077 86.9343 85.3732L84.4073 90.9893C83.4096 93.2067 80.9619 94.3854 78.6062 93.7829L72.6398 92.257C71.8266 92.049 70.9742 92.049 70.1609 92.257L64.1946 93.7829C61.8389 94.3854 59.3912 93.2067 58.3935 90.9893L55.8665 85.3732C55.5221 84.6077 54.9906 83.9412 54.321 83.4351L49.408 79.7218C47.4682 78.2557 46.8636 75.607 47.9752 73.4445L50.7905 67.9673C51.1742 67.2207 51.3639 66.3896 51.3421 65.5505L51.1821 59.3942C51.1189 56.9635 52.8128 54.8394 55.1966 54.3602L61.2342 53.1463C62.0571 52.9808 62.8251 52.6109 63.4676 52.0707L68.181 48.1072Z" fill="white" fill-opacity="0.1"/>
<path d="M66.1958 65.3888L66.5693 66.4098C65.5511 67.0683 64.7404 67.9675 64.1372 69.1075C63.534 70.2475 63.2158 71.5618 63.1826 73.0504C63.1771 73.1998 63.1273 73.3243 63.0332 73.4239C62.9391 73.5235 62.8201 73.5761 62.6763 73.5816C62.5324 73.5872 62.4051 73.5346 62.2944 73.4239C62.1893 73.3132 62.1367 73.1832 62.1367 73.0338C62.1367 71.8993 62.3055 70.8451 62.6431 69.8712C62.9806 68.8972 63.4538 68.0312 64.0625 67.273C64.6712 66.5094 65.3823 65.8813 66.1958 65.3888ZM76.7959 79.0934C75.418 79.5969 74.1147 79.6523 72.8862 79.2594C71.6632 78.872 70.526 78.0392 69.4746 76.7608L66.6938 73.4073C66.5998 73.2856 66.514 73.1583 66.4365 73.0255C66.359 72.8871 66.3009 72.7571 66.2622 72.6354C66.1017 72.2092 66.1211 71.8274 66.3203 71.4898C66.5251 71.1523 66.8184 70.9143 67.2002 70.776C67.4769 70.6764 67.7536 70.6681 68.0303 70.7511C68.307 70.8285 68.5671 70.9946 68.8105 71.2491L69.7817 72.3033C69.8094 72.3365 69.8371 72.3476 69.8647 72.3365C69.909 72.3255 69.9201 72.295 69.8979 72.2452L67.5322 65.7374C67.3551 65.2449 67.3607 64.7966 67.5488 64.3927C67.737 63.9832 68.0635 63.6926 68.5283 63.5211C68.9876 63.3551 69.4193 63.3689 69.8232 63.5626C70.2272 63.7507 70.5177 64.0938 70.6948 64.5919L71.6411 67.1817C71.8016 67.0655 71.9759 66.9715 72.1641 66.8995C72.5016 66.7778 72.8254 66.7639 73.1353 66.858C73.4507 66.9465 73.7163 67.1292 73.9321 67.4059C74.1313 67.2454 74.3444 67.1236 74.5713 67.0406C74.8923 66.9244 75.1966 66.9078 75.4844 66.9908C75.7721 67.0683 76.0129 67.2343 76.2065 67.4889C76.937 67.2343 77.5955 67.2841 78.1821 67.6383C78.7687 67.9924 79.2253 68.6205 79.5518 69.5226L80.166 71.2242C80.6087 72.4417 80.7581 73.5733 80.6143 74.6192C80.4759 75.6596 80.0802 76.5672 79.4272 77.3419C78.7743 78.1111 77.8971 78.6949 76.7959 79.0934ZM76.439 78.006C77.3631 77.6739 78.0853 77.1952 78.6055 76.5699C79.1312 75.9446 79.4383 75.2003 79.5269 74.337C79.6209 73.4737 79.4771 72.5191 79.0952 71.4732L78.5806 70.0538C78.3537 69.434 78.0825 68.9885 77.7671 68.7174C77.4517 68.4407 77.1224 68.366 76.7793 68.4933L77.103 69.3897C77.1528 69.5336 77.1445 69.6692 77.0781 69.7965C77.0117 69.9182 76.9149 70.0012 76.7876 70.0455C76.6548 70.0953 76.522 70.0953 76.3892 70.0455C76.2563 69.9902 76.165 69.8906 76.1152 69.7467L75.667 68.5348C75.5951 68.33 75.4816 68.1889 75.3267 68.1114C75.1717 68.0284 74.9974 68.0229 74.8037 68.0948C74.6432 68.1557 74.5021 68.247 74.3804 68.3687L74.9116 69.8463C74.967 69.9902 74.9614 70.1257 74.895 70.253C74.8286 70.3748 74.7318 70.4578 74.6045 70.5021C74.4717 70.5519 74.3361 70.5519 74.1978 70.5021C74.0649 70.4467 73.9736 70.3471 73.9238 70.2032L73.2598 68.3937C73.1878 68.1889 73.0744 68.0478 72.9194 67.9703C72.7645 67.8873 72.5902 67.8818 72.3965 67.9537C72.236 68.0146 72.0949 68.1059 71.9731 68.2276L72.7285 70.3111C72.7783 70.4439 72.77 70.574 72.7036 70.7013C72.6427 70.8285 72.5459 70.9171 72.4131 70.9669C72.2747 71.0167 72.1392 71.0139 72.0063 70.9586C71.8735 70.9033 71.7822 70.8064 71.7324 70.6681L69.6323 64.899C69.5715 64.733 69.4718 64.6168 69.3335 64.5504C69.2007 64.4785 69.054 64.4701 68.8936 64.5255C68.7331 64.5864 68.6196 64.6887 68.5532 64.8326C68.4868 64.971 68.484 65.1231 68.5449 65.2892L71.4917 73.3741C71.5526 73.5567 71.5526 73.7255 71.4917 73.8805C71.4308 74.0299 71.3201 74.135 71.1597 74.1959C71.0158 74.2457 70.8719 74.2568 70.728 74.2291C70.5841 74.1959 70.4347 74.0963 70.2798 73.9303L68.354 71.9464C68.1326 71.7084 67.903 71.631 67.665 71.714C67.5101 71.7748 67.4022 71.8717 67.3413 72.0045C67.286 72.1373 67.2832 72.2701 67.333 72.4029C67.3773 72.5191 67.4409 72.6298 67.5239 72.735L70.3047 76.0802C71.2676 77.2423 72.2581 77.9534 73.2764 78.2135C74.3001 78.4736 75.3543 78.4044 76.439 78.006Z" fill="white"/>
</g>
<defs>
<filter id="filter0_d_458_2735" x="0.000391006" y="0" width="142.8" height="142.8" filterUnits="userSpaceOnUse" color-interpolation-filters="sRGB">
<feFlood flood-opacity="0" result="BackgroundImageFix"/>
<feColorMatrix in="SourceAlpha" type="matrix" values="0 0 0 0 0 0 0 0 0 0 0 0 0 0 0 0 0 0 127 0" result="hardAlpha"/>
<feOffset/>
<feGaussianBlur stdDeviation="10.7"/>
<feComposite in2="hardAlpha" operator="out"/>
<feColorMatrix type="matrix" values="0 0 0 0 0 0 0 0 0 0.766667 0 0 0 0 1 0 0 0 0.5 0"/>
<feBlend mode="normal" in2="BackgroundImageFix" result="effect1_dropShadow_458_2735"/>
<feBlend mode="normal" in="SourceGraphic" in2="effect1_dropShadow_458_2735" result="shape"/>
</filter>
<linearGradient id="paint0_linear_458_2735" x1="88.2754" y1="112.65" x2="94.4856" y2="23.747" gradientUnits="userSpaceOnUse">
<stop stop-color="#03B9D6"/>
<stop offset="0.860577" stop-color="#7AE8FF"/>
</linearGradient>
<linearGradient id="paint1_linear_458_2735" x1="169.525" y1="166.4" x2="21.4004" y2="55.7766" gradientUnits="userSpaceOnUse">
<stop stop-color="#B9F3FF"/>
<stop offset="0.514423" stop-color="#53CBE4"/>
<stop offset="1" stop-color="#B9F3FF"/>
</linearGradient>
<pattern id="pattern0_458_2735" patternUnits="userSpaceOnUse" patternTransform="matrix(22.2148 0 0 25.7224 65.8526 65.8577)" preserveAspectRatio="none" viewBox="2.47754 3.98438 28.12 32.56" width="1" height="1">
<g id="pattern0_458_2735_inner">
<path d="M10.5708 16.9668C10.5708 17.2546 10.4657 17.5036 10.2554 17.7139C10.0451 17.9242 9.79329 18.0293 9.5 18.0293C9.20117 18.0293 8.94938 17.9242 8.74463 17.7139C8.53988 17.5036 8.4375 17.2546 8.4375 16.9668V5.05518C8.4375 4.76188 8.53988 4.51009 8.74463 4.2998C8.94938 4.08952 9.20117 3.98438 9.5 3.98438C9.79329 3.98438 10.0451 4.08952 10.2554 4.2998C10.4657 4.51009 10.5708 4.76188 10.5708 5.05518V16.9668ZM3.54834 12.0776C3.25505 12.0776 3.00326 11.9753 2.79297 11.7705C2.58268 11.5602 2.47754 11.3057 2.47754 11.0068C2.47754 10.7135 2.58268 10.4618 2.79297 10.2515C3.00326 10.0412 3.25505 9.93604 3.54834 9.93604H15.46C15.7477 9.93604 15.9967 10.0412 16.207 10.2515C16.4173 10.4618 16.5225 10.7135 16.5225 11.0068C16.5225 11.3057 16.4173 11.5602 16.207 11.7705C15.9967 11.9753 15.7477 12.0776 15.46 12.0776H3.54834Z" fill="#0D009D"/>
</g>
</pattern></defs>
</svg>
