<svg width="52" height="52" viewBox="0 0 52 52" fill="none" xmlns="http://www.w3.org/2000/svg">
<path d="M22.7806 2.70719C24.6416 1.14227 27.3584 1.14227 29.2194 2.70718L33.9328 6.67072C34.5752 7.21095 35.3433 7.58082 36.1662 7.74627L42.2038 8.96015C44.5876 9.43943 46.2815 11.5635 46.2183 13.9942L46.0583 20.1505C46.0364 20.9896 46.2261 21.8207 46.6099 22.5673L49.4252 28.0445C50.5368 30.207 49.9322 32.8557 47.9924 34.3218L43.0794 38.0351C42.4098 38.5412 41.8783 39.2077 41.5339 39.9732L39.0069 45.5893C38.0092 47.8067 35.5615 48.9854 33.2058 48.3829L27.2394 46.857C26.4262 46.649 25.5738 46.649 24.7606 46.857L18.7942 48.3829C16.4385 48.9854 13.9908 47.8067 12.9931 45.5893L10.4661 39.9732C10.1217 39.2077 9.5902 38.5412 8.92056 38.0351L4.00756 34.3218C2.06778 32.8557 1.46324 30.207 2.5748 28.0445L5.39013 22.5673C5.77385 21.8207 5.96355 20.9896 5.94173 20.1505L5.78169 13.9942C5.71851 11.5635 7.41238 9.43943 9.79619 8.96016L15.8338 7.74627C16.6567 7.58082 17.4248 7.21095 18.0672 6.67072L22.7806 2.70719Z" fill="white" fill-opacity="0.1"/>
<path d="M20.7954 19.9888L21.1689 21.0098C20.1507 21.6683 19.34 22.5675 18.7368 23.7075C18.1336 24.8475 17.8154 26.1618 17.7822 27.6504C17.7767 27.7998 17.7269 27.9243 17.6328 28.0239C17.5387 28.1235 17.4198 28.1761 17.2759 28.1816C17.132 28.1872 17.0047 28.1346 16.894 28.0239C16.7889 27.9132 16.7363 27.7832 16.7363 27.6338C16.7363 26.4993 16.9051 25.4451 17.2427 24.4712C17.5802 23.4972 18.0534 22.6312 18.6621 21.873C19.2708 21.1094 19.9819 20.4813 20.7954 19.9888ZM31.3955 33.6934C30.0176 34.1969 28.7144 34.2523 27.4858 33.8594C26.2629 33.472 25.1257 32.6392 24.0742 31.3608L21.2935 28.0073C21.1994 27.8856 21.1136 27.7583 21.0361 27.6255C20.9587 27.4871 20.9006 27.3571 20.8618 27.2354C20.7013 26.8092 20.7207 26.4274 20.9199 26.0898C21.1247 25.7523 21.418 25.5143 21.7998 25.376C22.0765 25.2764 22.3532 25.2681 22.6299 25.3511C22.9066 25.4285 23.1667 25.5946 23.4102 25.8491L24.3813 26.9033C24.409 26.9365 24.4367 26.9476 24.4644 26.9365C24.5086 26.9255 24.5197 26.895 24.4976 26.8452L22.1318 20.3374C21.9548 19.8449 21.9603 19.3966 22.1484 18.9927C22.3366 18.5832 22.6631 18.2926 23.1279 18.1211C23.5872 17.9551 24.0189 17.9689 24.4229 18.1626C24.8268 18.3507 25.1174 18.6938 25.2944 19.1919L26.2407 21.7817C26.4012 21.6655 26.5755 21.5715 26.7637 21.4995C27.1012 21.3778 27.425 21.3639 27.7349 21.458C28.0503 21.5465 28.3159 21.7292 28.5317 22.0059C28.731 21.8454 28.944 21.7236 29.1709 21.6406C29.4919 21.5244 29.7962 21.5078 30.084 21.5908C30.3717 21.6683 30.6125 21.8343 30.8062 22.0889C31.5366 21.8343 32.1951 21.8841 32.7817 22.2383C33.3683 22.5924 33.8249 23.2205 34.1514 24.1226L34.7656 25.8242C35.2083 27.0417 35.3577 28.1733 35.2139 29.2192C35.0755 30.2596 34.6799 31.1672 34.0269 31.9419C33.3739 32.7111 32.4967 33.2949 31.3955 33.6934ZM31.0386 32.606C31.9627 32.2739 32.6849 31.7952 33.2051 31.1699C33.7308 30.5446 34.0379 29.8003 34.1265 28.937C34.2205 28.0737 34.0767 27.1191 33.6948 26.0732L33.1802 24.6538C32.9533 24.034 32.6821 23.5885 32.3667 23.3174C32.0513 23.0407 31.722 22.966 31.3789 23.0933L31.7026 23.9897C31.7524 24.1336 31.7441 24.2692 31.6777 24.3965C31.6113 24.5182 31.5145 24.6012 31.3872 24.6455C31.2544 24.6953 31.1216 24.6953 30.9888 24.6455C30.856 24.5902 30.7646 24.4906 30.7148 24.3467L30.2666 23.1348C30.1947 22.93 30.0812 22.7889 29.9263 22.7114C29.7713 22.6284 29.597 22.6229 29.4033 22.6948C29.2428 22.7557 29.1017 22.847 28.98 22.9688L29.5112 24.4463C29.5666 24.5902 29.561 24.7257 29.4946 24.853C29.4282 24.9748 29.3314 25.0578 29.2041 25.1021C29.0713 25.1519 28.9357 25.1519 28.7974 25.1021C28.6646 25.0467 28.5732 24.9471 28.5234 24.8032L27.8594 22.9937C27.7874 22.7889 27.674 22.6478 27.519 22.5703C27.3641 22.4873 27.1898 22.4818 26.9961 22.5537C26.8356 22.6146 26.6945 22.7059 26.5728 22.8276L27.3281 24.9111C27.3779 25.0439 27.3696 25.174 27.3032 25.3013C27.2424 25.4285 27.1455 25.5171 27.0127 25.5669C26.8743 25.6167 26.7388 25.6139 26.606 25.5586C26.4731 25.5033 26.3818 25.4064 26.332 25.2681L24.2319 19.499C24.1711 19.333 24.0715 19.2168 23.9331 19.1504C23.8003 19.0785 23.6536 19.0701 23.4932 19.1255C23.3327 19.1864 23.2192 19.2887 23.1528 19.4326C23.0864 19.571 23.0837 19.7231 23.1445 19.8892L26.0913 27.9741C26.1522 28.1567 26.1522 28.3255 26.0913 28.4805C26.0304 28.6299 25.9198 28.735 25.7593 28.7959C25.6154 28.8457 25.4715 28.8568 25.3276 28.8291C25.1838 28.7959 25.0343 28.6963 24.8794 28.5303L22.9536 26.5464C22.7323 26.3084 22.5026 26.231 22.2646 26.314C22.1097 26.3748 22.0018 26.4717 21.9409 26.6045C21.8856 26.7373 21.8828 26.8701 21.9326 27.0029C21.9769 27.1191 22.0405 27.2298 22.1235 27.335L24.9043 30.6802C25.8672 31.8423 26.8577 32.5534 27.876 32.8135C28.8997 33.0736 29.9539 33.0044 31.0386 32.606Z" fill="white"/>
</svg>
